%TF.GenerationSoftware,KiCad,Pcbnew,9.0.6*%
%TF.CreationDate,2025-11-29T22:38:19+10:00*%
%TF.ProjectId,ShieldXL-M,53686965-6c64-4584-9c2d-4d2e6b696361,rev?*%
%TF.SameCoordinates,Original*%
%TF.FileFunction,Soldermask,Bot*%
%TF.FilePolarity,Negative*%
%FSLAX46Y46*%
G04 Gerber Fmt 4.6, Leading zero omitted, Abs format (unit mm)*
G04 Created by KiCad (PCBNEW 9.0.6) date 2025-11-29 22:38:19*
%MOMM*%
%LPD*%
G01*
G04 APERTURE LIST*
G04 Aperture macros list*
%AMRoundRect*
0 Rectangle with rounded corners*
0 $1 Rounding radius*
0 $2 $3 $4 $5 $6 $7 $8 $9 X,Y pos of 4 corners*
0 Add a 4 corners polygon primitive as box body*
4,1,4,$2,$3,$4,$5,$6,$7,$8,$9,$2,$3,0*
0 Add four circle primitives for the rounded corners*
1,1,$1+$1,$2,$3*
1,1,$1+$1,$4,$5*
1,1,$1+$1,$6,$7*
1,1,$1+$1,$8,$9*
0 Add four rect primitives between the rounded corners*
20,1,$1+$1,$2,$3,$4,$5,0*
20,1,$1+$1,$4,$5,$6,$7,0*
20,1,$1+$1,$6,$7,$8,$9,0*
20,1,$1+$1,$8,$9,$2,$3,0*%
%AMFreePoly0*
4,1,25,0.372036,0.971196,0.384159,0.960842,0.825842,0.519159,0.854349,0.463211,0.855600,0.447317,0.855600,-0.447317,0.836196,-0.507036,0.825842,-0.519159,0.384159,-0.960842,0.328211,-0.989349,0.312317,-0.990600,-0.312317,-0.990600,-0.372036,-0.971196,-0.384159,-0.960842,-0.825842,-0.519159,-0.854349,-0.463211,-0.855600,-0.447317,-0.855600,0.447317,-0.836196,0.507036,-0.825842,0.519159,
-0.384159,0.960842,-0.328211,0.989349,-0.312317,0.990600,0.312317,0.990600,0.372036,0.971196,0.372036,0.971196,$1*%
G04 Aperture macros list end*
%ADD10C,4.000400*%
%ADD11C,2.032000*%
%ADD12C,2.667000*%
%ADD13O,4.703200X2.453200*%
%ADD14FreePoly0,270.000000*%
%ADD15O,2.453200X4.703200*%
%ADD16FreePoly0,0.000000*%
%ADD17C,2.700000*%
%ADD18C,2.750000*%
%ADD19RoundRect,0.101600X0.889000X-0.889000X0.889000X0.889000X-0.889000X0.889000X-0.889000X-0.889000X0*%
%ADD20C,1.981200*%
%ADD21RoundRect,0.101600X0.550000X-0.500000X0.550000X0.500000X-0.550000X0.500000X-0.550000X-0.500000X0*%
%ADD22RoundRect,0.101600X-0.550000X0.500000X-0.550000X-0.500000X0.550000X-0.500000X0.550000X0.500000X0*%
%ADD23RoundRect,0.101600X0.600000X0.650000X-0.600000X0.650000X-0.600000X-0.650000X0.600000X-0.650000X0*%
%ADD24RoundRect,0.101600X-0.500000X-0.550000X0.500000X-0.550000X0.500000X0.550000X-0.500000X0.550000X0*%
%ADD25RoundRect,0.101600X0.550000X0.500000X-0.550000X0.500000X-0.550000X-0.500000X0.550000X-0.500000X0*%
%ADD26RoundRect,0.101600X-0.750000X0.800000X-0.750000X-0.800000X0.750000X-0.800000X0.750000X0.800000X0*%
%ADD27RoundRect,0.101600X0.750000X-0.800000X0.750000X0.800000X-0.750000X0.800000X-0.750000X-0.800000X0*%
%ADD28RoundRect,0.101600X-0.550000X-0.500000X0.550000X-0.500000X0.550000X0.500000X-0.550000X0.500000X0*%
%ADD29RoundRect,0.101600X-0.650000X0.600000X-0.650000X-0.600000X0.650000X-0.600000X0.650000X0.600000X0*%
%ADD30RoundRect,0.101600X-0.650000X-0.750000X0.650000X-0.750000X0.650000X0.750000X-0.650000X0.750000X0*%
%ADD31C,3.000000*%
%ADD32C,2.000000*%
%ADD33RoundRect,0.101600X-0.500000X0.550000X-0.500000X-0.550000X0.500000X-0.550000X0.500000X0.550000X0*%
%ADD34RoundRect,0.101600X0.500000X0.550000X-0.500000X0.550000X-0.500000X-0.550000X0.500000X-0.550000X0*%
%ADD35RoundRect,0.101600X0.750000X-0.650000X0.750000X0.650000X-0.750000X0.650000X-0.750000X-0.650000X0*%
%ADD36RoundRect,0.101600X0.500000X-0.550000X0.500000X0.550000X-0.500000X0.550000X-0.500000X-0.550000X0*%
%ADD37RoundRect,0.101600X-0.400000X-0.400000X0.400000X-0.400000X0.400000X0.400000X-0.400000X0.400000X0*%
%ADD38RoundRect,0.101600X-0.800000X-0.900000X0.800000X-0.900000X0.800000X0.900000X-0.800000X0.900000X0*%
%ADD39C,1.200000*%
%ADD40RoundRect,0.101600X0.825000X1.750000X-0.825000X1.750000X-0.825000X-1.750000X0.825000X-1.750000X0*%
%ADD41C,1.000000*%
%ADD42RoundRect,0.101600X0.550000X-0.950000X0.550000X0.950000X-0.550000X0.950000X-0.550000X-0.950000X0*%
%ADD43RoundRect,0.101600X0.650000X0.750000X-0.650000X0.750000X-0.650000X-0.750000X0.650000X-0.750000X0*%
%ADD44R,2.700000X2.400000*%
%ADD45R,0.600000X1.900000*%
%ADD46RoundRect,0.101600X-0.600000X-0.650000X0.600000X-0.650000X0.600000X0.650000X-0.600000X0.650000X0*%
%ADD47RoundRect,0.150000X0.625000X0.150000X-0.625000X0.150000X-0.625000X-0.150000X0.625000X-0.150000X0*%
%ADD48RoundRect,0.101600X-0.750000X0.650000X-0.750000X-0.650000X0.750000X-0.650000X0.750000X0.650000X0*%
%ADD49RoundRect,0.101600X0.800000X0.900000X-0.800000X0.900000X-0.800000X-0.900000X0.800000X-0.900000X0*%
%ADD50RoundRect,0.101600X-0.495300X0.152400X-0.495300X-0.152400X0.495300X-0.152400X0.495300X0.152400X0*%
%ADD51RoundRect,0.101600X-0.345000X-0.495000X0.345000X-0.495000X0.345000X0.495000X-0.345000X0.495000X0*%
%ADD52RoundRect,0.101600X0.345000X0.495000X-0.345000X0.495000X-0.345000X-0.495000X0.345000X-0.495000X0*%
G04 APERTURE END LIST*
D10*
%TO.C,SW2*%
X173018135Y-128813295D03*
D11*
X173018135Y-134713295D03*
D12*
X176828135Y-131353295D03*
D11*
X168018135Y-132613295D03*
D12*
X170478135Y-133893295D03*
%TD*%
D13*
%TO.C,E2*%
X203495058Y-105862585D03*
X203495058Y-117292585D03*
D14*
X195995058Y-109077585D03*
X195995058Y-114077585D03*
X195995058Y-111577585D03*
%TD*%
D10*
%TO.C,SW3*%
X196607718Y-128795933D03*
D11*
X196607718Y-134695933D03*
D12*
X200417718Y-131335933D03*
D11*
X191607718Y-132595933D03*
D12*
X194067718Y-133875933D03*
%TD*%
D10*
%TO.C,SW1*%
X91707658Y-81816663D03*
D11*
X91707658Y-87716663D03*
D12*
X95517658Y-84356663D03*
D11*
X86707658Y-85616663D03*
D12*
X89167658Y-86896663D03*
%TD*%
D15*
%TO.C,E1*%
X103916361Y-81834032D03*
X115346361Y-81834032D03*
D16*
X107131361Y-89334032D03*
X112131361Y-89334032D03*
X109631361Y-89334032D03*
%TD*%
D13*
%TO.C,E3*%
X179376520Y-105866217D03*
X179376520Y-117296217D03*
D14*
X171876520Y-109081217D03*
X171876520Y-114081217D03*
X171876520Y-111581217D03*
%TD*%
D17*
%TO.C,X1*%
X159948360Y-136416589D03*
D18*
X208948360Y-136416589D03*
X159948360Y-78416589D03*
X208948360Y-78416589D03*
D19*
X161218360Y-131546589D03*
D20*
X158678360Y-131546589D03*
X161218360Y-129006589D03*
X158678360Y-129006589D03*
X161218360Y-126466589D03*
X158678360Y-126466589D03*
X161218360Y-123926589D03*
X158678360Y-123926589D03*
X161218360Y-121386589D03*
X158678360Y-121386589D03*
X161218360Y-118846589D03*
X158678360Y-118846589D03*
X161218360Y-116306589D03*
X158678360Y-116306589D03*
X161218360Y-113766589D03*
X158678360Y-113766589D03*
X161218360Y-111226589D03*
X158678360Y-111226589D03*
X161218360Y-108686589D03*
X158678360Y-108686589D03*
X161218360Y-106146589D03*
X158678360Y-106146589D03*
X161218360Y-103606589D03*
X158678360Y-103606589D03*
X161218360Y-101066589D03*
X158678360Y-101066589D03*
X161218360Y-98526589D03*
X158678360Y-98526589D03*
X161218360Y-95986589D03*
X158678360Y-95986589D03*
X161218360Y-93446589D03*
X158678360Y-93446589D03*
X161218360Y-90906589D03*
X158678360Y-90906589D03*
X161218360Y-88366589D03*
X158678360Y-88366589D03*
X161218360Y-85826589D03*
X158678360Y-85826589D03*
X161218360Y-83286589D03*
X158678360Y-83286589D03*
%TD*%
D21*
%TO.C,R11*%
X125499534Y-88101063D03*
X125499534Y-86401063D03*
%TD*%
%TO.C,R12*%
X123496633Y-88101063D03*
X123496633Y-86401063D03*
%TD*%
D22*
%TO.C,R45*%
X95750468Y-92798909D03*
X95750468Y-94498909D03*
%TD*%
D23*
%TO.C,L1*%
X116426222Y-92119801D03*
X114394222Y-92119801D03*
%TD*%
D24*
%TO.C,R47*%
X180666959Y-125806766D03*
X182366959Y-125806766D03*
%TD*%
D22*
%TO.C,R29*%
X103765542Y-92838988D03*
X103765542Y-94538988D03*
%TD*%
D21*
%TO.C,R18*%
X190385100Y-138398010D03*
X190385100Y-136698010D03*
%TD*%
D25*
%TO.C,C47*%
X134356299Y-90104696D03*
X132656299Y-90104696D03*
%TD*%
D26*
%TO.C,Q1*%
X144181299Y-94252196D03*
X144181299Y-96752196D03*
D27*
X141881299Y-96752196D03*
X141881299Y-94252196D03*
%TD*%
D22*
%TO.C,R14*%
X123524087Y-90205238D03*
X123524087Y-91905238D03*
%TD*%
D28*
%TO.C,C15*%
X123766299Y-84707196D03*
X125466299Y-84707196D03*
%TD*%
D25*
%TO.C,C4*%
X134356299Y-105027196D03*
X132656299Y-105027196D03*
%TD*%
D29*
%TO.C,L2*%
X129032675Y-110516530D03*
X129032675Y-112548530D03*
%TD*%
D21*
%TO.C,R4*%
X171561104Y-103839046D03*
X171561104Y-102139046D03*
%TD*%
D28*
%TO.C,C46*%
X186983412Y-123852122D03*
X188683412Y-123852122D03*
%TD*%
D21*
%TO.C,R19*%
X171408742Y-138077766D03*
X171408742Y-136377766D03*
%TD*%
D30*
%TO.C,C2*%
X136383754Y-92897661D03*
X138283754Y-92897661D03*
%TD*%
D21*
%TO.C,R38*%
X173534028Y-103839046D03*
X173534028Y-102139046D03*
%TD*%
D22*
%TO.C,R13*%
X125492908Y-90205238D03*
X125492908Y-91905238D03*
%TD*%
D31*
%TO.C,J2*%
X147361373Y-69252122D03*
D32*
X138061373Y-62902122D03*
X149491373Y-62902122D03*
D31*
X149491373Y-66052122D03*
X138061373Y-66052122D03*
X149491373Y-59702122D03*
X138061373Y-59702122D03*
X149491373Y-72402122D03*
X138061373Y-72402122D03*
%TD*%
D21*
%TO.C,R35*%
X190096484Y-103914786D03*
X190096484Y-102214786D03*
%TD*%
D33*
%TO.C,C38*%
X186049940Y-102208692D03*
X186049940Y-103908692D03*
%TD*%
D24*
%TO.C,R16*%
X188716637Y-110142716D03*
X190416637Y-110142716D03*
%TD*%
D34*
%TO.C,R49*%
X188687520Y-125855705D03*
X186987520Y-125855705D03*
%TD*%
D25*
%TO.C,C18*%
X186467867Y-110129127D03*
X184767867Y-110129127D03*
%TD*%
D35*
%TO.C,C16*%
X127473799Y-92007196D03*
X127473799Y-90107196D03*
%TD*%
D36*
%TO.C,C36*%
X109738770Y-94538988D03*
X109738770Y-92838988D03*
%TD*%
D21*
%TO.C,R34*%
X188072828Y-103908692D03*
X188072828Y-102208692D03*
%TD*%
D37*
%TO.C,D1*%
X173377812Y-136937216D03*
X173377812Y-138437216D03*
%TD*%
D38*
%TO.C,C7*%
X136607072Y-107059485D03*
X139407072Y-107059485D03*
%TD*%
D39*
%TO.C,J6*%
X210176863Y-95650260D03*
X204176863Y-95650260D03*
D40*
X203101863Y-99400260D03*
X208001863Y-91900260D03*
X210101863Y-99400260D03*
%TD*%
D41*
%TO.C,S1*%
X183413475Y-135933795D03*
X186413475Y-135933795D03*
D42*
X187413475Y-138433795D03*
X184913475Y-138433795D03*
X182413475Y-138433795D03*
X182413475Y-133433795D03*
X184913475Y-133433795D03*
X187413475Y-133433795D03*
%TD*%
D31*
%TO.C,J1*%
X130582740Y-69252122D03*
D32*
X121282740Y-62902122D03*
X132712740Y-62902122D03*
D31*
X132712740Y-66052122D03*
X121282740Y-66052122D03*
X132712740Y-59702122D03*
X121282740Y-59702122D03*
X132712740Y-72402122D03*
X121282740Y-72402122D03*
%TD*%
D21*
%TO.C,R20*%
X175215610Y-137902738D03*
X175215610Y-136202738D03*
%TD*%
D31*
%TO.C,J4*%
X96936853Y-69252122D03*
D32*
X87636853Y-62902122D03*
X99066853Y-62902122D03*
D31*
X99066853Y-66052122D03*
X87636853Y-66052122D03*
X99066853Y-59702122D03*
X87636853Y-59702122D03*
X99066853Y-72402122D03*
X87636853Y-72402122D03*
%TD*%
D39*
%TO.C,J3*%
X210176863Y-122086142D03*
X204176863Y-122086142D03*
D40*
X203101863Y-125836142D03*
X208001863Y-118336142D03*
X210101863Y-125836142D03*
%TD*%
D25*
%TO.C,C8*%
X134339877Y-94975201D03*
X132639877Y-94975201D03*
%TD*%
D43*
%TO.C,C5*%
X134422706Y-107059485D03*
X132522706Y-107059485D03*
%TD*%
D24*
%TO.C,R15*%
X133926299Y-110107196D03*
X135626299Y-110107196D03*
%TD*%
D21*
%TO.C,R3*%
X192106996Y-103914442D03*
X192106996Y-102214442D03*
%TD*%
D36*
%TO.C,C88*%
X143914781Y-85992998D03*
X143914781Y-84292998D03*
%TD*%
D21*
%TO.C,R17*%
X179983540Y-138421176D03*
X179983540Y-136721176D03*
%TD*%
D34*
%TO.C,R10*%
X125458689Y-105109816D03*
X123758689Y-105109816D03*
%TD*%
D25*
%TO.C,C45*%
X182373244Y-123801842D03*
X180673244Y-123801842D03*
%TD*%
D22*
%TO.C,R28*%
X101746385Y-92836619D03*
X101746385Y-94536619D03*
%TD*%
D44*
%TO.C,U$1*%
X109438100Y-133738132D03*
X133528100Y-133738132D03*
D45*
X111968100Y-136088132D03*
X112968100Y-136088132D03*
X113968099Y-136088132D03*
X114968100Y-136088132D03*
X115968100Y-136088132D03*
X116968100Y-136088132D03*
X117968100Y-136088132D03*
X118968099Y-136088132D03*
X119968100Y-136088132D03*
X120968100Y-136088132D03*
X121968100Y-136088132D03*
X122968100Y-136088132D03*
X123968100Y-136088131D03*
X124968100Y-136088132D03*
X125968100Y-136088132D03*
X126968100Y-136088132D03*
X127968100Y-136088132D03*
X128968100Y-136088131D03*
X129968100Y-136088132D03*
X130968100Y-136088132D03*
%TD*%
D28*
%TO.C,C6*%
X136466299Y-105027196D03*
X138166299Y-105027196D03*
%TD*%
D46*
%TO.C,L3*%
X134635771Y-84204101D03*
X136667771Y-84204101D03*
%TD*%
D36*
%TO.C,C44*%
X93739259Y-94498909D03*
X93739259Y-92798909D03*
%TD*%
%TO.C,C13*%
X129129723Y-104594976D03*
X129129723Y-102894976D03*
%TD*%
D33*
%TO.C,C41*%
X165576567Y-102122605D03*
X165576567Y-103822605D03*
%TD*%
D21*
%TO.C,R44*%
X97736537Y-94511479D03*
X97736537Y-92811479D03*
%TD*%
%TO.C,R40*%
X167565933Y-103822605D03*
X167565933Y-102122605D03*
%TD*%
D47*
%TO.C,U2*%
X192318221Y-112627556D03*
X192318221Y-113897556D03*
X192318221Y-115167556D03*
X192318221Y-116437556D03*
X186968221Y-116437556D03*
X186968221Y-115167556D03*
X186968221Y-113897556D03*
X186968221Y-112627556D03*
%TD*%
D33*
%TO.C,C42*%
X175506953Y-102155487D03*
X175506953Y-103855487D03*
%TD*%
D21*
%TO.C,R32*%
X194129885Y-103914442D03*
X194129885Y-102214442D03*
%TD*%
D36*
%TO.C,C35*%
X99735176Y-94524049D03*
X99735176Y-92824049D03*
%TD*%
D24*
%TO.C,R1*%
X142181299Y-91692196D03*
X143881299Y-91692196D03*
%TD*%
D48*
%TO.C,C10*%
X127156299Y-98997196D03*
X127156299Y-100897196D03*
%TD*%
D22*
%TO.C,R26*%
X107747694Y-92838988D03*
X107747694Y-94538988D03*
%TD*%
D35*
%TO.C,C12*%
X127143490Y-104845888D03*
X127143490Y-102945888D03*
%TD*%
D28*
%TO.C,C17*%
X123766299Y-93597196D03*
X125466299Y-93597196D03*
%TD*%
D22*
%TO.C,R21*%
X138697560Y-83871646D03*
X138697560Y-85571646D03*
%TD*%
D30*
%TO.C,C43*%
X134761510Y-87907928D03*
X136661510Y-87907928D03*
%TD*%
D33*
%TO.C,C3*%
X146523799Y-94652196D03*
X146523799Y-96352196D03*
%TD*%
D49*
%TO.C,C9*%
X134205570Y-92956493D03*
X131405570Y-92956493D03*
%TD*%
D48*
%TO.C,C14*%
X127479010Y-86148795D03*
X127479010Y-88048795D03*
%TD*%
D50*
%TO.C,U1*%
X138329099Y-96372196D03*
X138329099Y-97022196D03*
X138329099Y-97672196D03*
X138329099Y-98322196D03*
X138329099Y-98972196D03*
X138329099Y-99622196D03*
X138329099Y-100272196D03*
X138329099Y-100922196D03*
X138329099Y-101572196D03*
X138329099Y-102222196D03*
X138329099Y-102872196D03*
X138329099Y-103522196D03*
X132493499Y-103522196D03*
X132493499Y-102872196D03*
X132493499Y-102222196D03*
X132493499Y-101572196D03*
X132493499Y-100922196D03*
X132493499Y-100272196D03*
X132493499Y-99622196D03*
X132493499Y-98972196D03*
X132493499Y-98322196D03*
X132493499Y-97672196D03*
X132493499Y-97022196D03*
X132493499Y-96372196D03*
%TD*%
D34*
%TO.C,R7*%
X125466299Y-98994696D03*
X123766299Y-98994696D03*
%TD*%
%TO.C,R46*%
X182373244Y-127811689D03*
X180673244Y-127811689D03*
%TD*%
%TO.C,R8*%
X125458689Y-100966550D03*
X123758689Y-100966550D03*
%TD*%
%TO.C,R9*%
X125466299Y-103122196D03*
X123766299Y-103122196D03*
%TD*%
D28*
%TO.C,C1*%
X136451821Y-94941310D03*
X138151821Y-94941310D03*
%TD*%
D24*
%TO.C,R48*%
X186983412Y-127861970D03*
X188683412Y-127861970D03*
%TD*%
D33*
%TO.C,C39*%
X196164959Y-102202256D03*
X196164959Y-103902256D03*
%TD*%
D24*
%TO.C,R6*%
X192049526Y-110142716D03*
X193749526Y-110142716D03*
%TD*%
D28*
%TO.C,C63*%
X140391582Y-82212046D03*
X142091582Y-82212046D03*
%TD*%
D31*
%TO.C,J5*%
X113738103Y-69252122D03*
D32*
X104438103Y-62902122D03*
X115868103Y-62902122D03*
D31*
X115868103Y-66052122D03*
X104438103Y-66052122D03*
X115868103Y-59702122D03*
X104438103Y-59702122D03*
X115868103Y-72402122D03*
X104438103Y-72402122D03*
%TD*%
D22*
%TO.C,R2*%
X105756618Y-92838988D03*
X105756618Y-94538988D03*
%TD*%
D33*
%TO.C,C11*%
X129165092Y-99115693D03*
X129165092Y-100815693D03*
%TD*%
D21*
%TO.C,R41*%
X169563176Y-103827539D03*
X169563176Y-102127539D03*
%TD*%
%TO.C,R5*%
X181029344Y-114341203D03*
X181029344Y-112641203D03*
%TD*%
D51*
%TO.C,U11*%
X140241519Y-83856372D03*
X141191519Y-83856372D03*
X142141519Y-83856372D03*
D52*
X142141519Y-86456372D03*
D51*
X140241519Y-86456372D03*
%TD*%
D37*
%TO.C,D2*%
X177515241Y-136937216D03*
X177515241Y-138437216D03*
%TD*%
M02*
