%TF.GenerationSoftware,KiCad,Pcbnew,9.0.6*%
%TF.CreationDate,2025-11-29T22:38:19+10:00*%
%TF.ProjectId,ShieldXL-M,53686965-6c64-4584-9c2d-4d2e6b696361,rev?*%
%TF.SameCoordinates,Original*%
%TF.FileFunction,Legend,Top*%
%TF.FilePolarity,Positive*%
%FSLAX46Y46*%
G04 Gerber Fmt 4.6, Leading zero omitted, Abs format (unit mm)*
G04 Created by KiCad (PCBNEW 9.0.6) date 2025-11-29 22:38:19*
%MOMM*%
%LPD*%
G01*
G04 APERTURE LIST*
G04 Aperture macros list*
%AMRoundRect*
0 Rectangle with rounded corners*
0 $1 Rounding radius*
0 $2 $3 $4 $5 $6 $7 $8 $9 X,Y pos of 4 corners*
0 Add a 4 corners polygon primitive as box body*
4,1,4,$2,$3,$4,$5,$6,$7,$8,$9,$2,$3,0*
0 Add four circle primitives for the rounded corners*
1,1,$1+$1,$2,$3*
1,1,$1+$1,$4,$5*
1,1,$1+$1,$6,$7*
1,1,$1+$1,$8,$9*
0 Add four rect primitives between the rounded corners*
20,1,$1+$1,$2,$3,$4,$5,0*
20,1,$1+$1,$4,$5,$6,$7,0*
20,1,$1+$1,$6,$7,$8,$9,0*
20,1,$1+$1,$8,$9,$2,$3,0*%
%AMFreePoly0*
4,1,25,0.372036,0.971196,0.384159,0.960842,0.825842,0.519159,0.854349,0.463211,0.855600,0.447317,0.855600,-0.447317,0.836196,-0.507036,0.825842,-0.519159,0.384159,-0.960842,0.328211,-0.989349,0.312317,-0.990600,-0.312317,-0.990600,-0.372036,-0.971196,-0.384159,-0.960842,-0.825842,-0.519159,-0.854349,-0.463211,-0.855600,-0.447317,-0.855600,0.447317,-0.836196,0.507036,-0.825842,0.519159,
-0.384159,0.960842,-0.328211,0.989349,-0.312317,0.990600,0.312317,0.990600,0.372036,0.971196,0.372036,0.971196,$1*%
G04 Aperture macros list end*
%ADD10C,0.079374*%
%ADD11C,0.298450*%
%ADD12C,0.254000*%
%ADD13C,0.127000*%
%ADD14C,0.266700*%
%ADD15C,0.101600*%
%ADD16C,0.150000*%
%ADD17C,0.100000*%
%ADD18C,0.050000*%
%ADD19C,0.001000*%
%ADD20C,4.000400*%
%ADD21C,2.032000*%
%ADD22C,2.667000*%
%ADD23O,4.703200X2.453200*%
%ADD24FreePoly0,270.000000*%
%ADD25O,2.453200X4.703200*%
%ADD26FreePoly0,0.000000*%
%ADD27C,2.700000*%
%ADD28C,2.750000*%
%ADD29RoundRect,0.101600X0.889000X-0.889000X0.889000X0.889000X-0.889000X0.889000X-0.889000X-0.889000X0*%
%ADD30C,1.981200*%
%ADD31C,3.000000*%
%ADD32C,2.000000*%
%ADD33C,1.200000*%
%ADD34C,1.000000*%
G04 APERTURE END LIST*
D10*
X131777083Y-64770862D02*
X128928401Y-64770862D01*
X125463524Y-58317594D01*
X121998564Y-64770862D01*
X119138283Y-64770862D01*
X123696153Y-56178199D01*
X127230812Y-56178199D01*
X131777083Y-64770862D01*
G36*
X131777083Y-64770862D02*
G01*
X128928401Y-64770862D01*
X125463524Y-58317594D01*
X121998564Y-64770862D01*
X119138283Y-64770862D01*
X123696153Y-56178199D01*
X127230812Y-56178199D01*
X131777083Y-64770862D01*
G37*
X148562881Y-64770862D02*
X145714181Y-64770862D01*
X142249313Y-58317594D01*
X138784353Y-64770862D01*
X135924081Y-64770862D01*
X140481942Y-56178199D01*
X144016592Y-56178199D01*
X148562881Y-64770862D01*
G36*
X148562881Y-64770862D02*
G01*
X145714181Y-64770862D01*
X142249313Y-58317594D01*
X138784353Y-64770862D01*
X135924081Y-64770862D01*
X140481942Y-56178199D01*
X144016592Y-56178199D01*
X148562881Y-64770862D01*
G37*
X127902958Y-64770464D02*
X126677250Y-64770464D01*
X125461219Y-62120369D01*
X124240364Y-64770464D01*
X123019563Y-64770464D01*
X125451533Y-59727135D01*
X127902958Y-64770464D01*
G36*
X127902958Y-64770464D02*
G01*
X126677250Y-64770464D01*
X125461219Y-62120369D01*
X124240364Y-64770464D01*
X123019563Y-64770464D01*
X125451533Y-59727135D01*
X127902958Y-64770464D01*
G37*
X91909601Y-58983988D02*
X93125627Y-56333898D01*
X94351335Y-56333898D01*
X91899919Y-61377222D01*
X89467949Y-56333898D01*
X90688736Y-56333898D01*
X91909601Y-58983988D01*
G36*
X91909601Y-58983988D02*
G01*
X93125627Y-56333898D01*
X94351335Y-56333898D01*
X91899919Y-61377222D01*
X89467949Y-56333898D01*
X90688736Y-56333898D01*
X91909601Y-58983988D01*
G37*
X108698317Y-62787276D02*
X112163194Y-56334008D01*
X115011885Y-56334008D01*
X110465600Y-64926671D01*
X106930955Y-64926671D01*
X102373085Y-56334008D01*
X105233357Y-56334008D01*
X108698317Y-62787276D01*
G36*
X108698317Y-62787276D02*
G01*
X112163194Y-56334008D01*
X115011885Y-56334008D01*
X110465600Y-64926671D01*
X106930955Y-64926671D01*
X102373085Y-56334008D01*
X105233357Y-56334008D01*
X108698317Y-62787276D01*
G37*
X91836376Y-62787276D02*
X95301253Y-56334008D01*
X98149939Y-56334008D01*
X93603655Y-64926671D01*
X90069010Y-64926671D01*
X85511139Y-56334008D01*
X88371421Y-56334008D01*
X91836376Y-62787276D01*
G36*
X91836376Y-62787276D02*
G01*
X95301253Y-56334008D01*
X98149939Y-56334008D01*
X93603655Y-64926671D01*
X90069010Y-64926671D01*
X85511139Y-56334008D01*
X88371421Y-56334008D01*
X91836376Y-62787276D01*
G37*
D11*
G36*
X165810066Y-90511747D02*
G01*
X166094208Y-90511747D01*
X166097948Y-90405311D01*
X166115931Y-90299479D01*
X166149293Y-90198865D01*
X166197864Y-90110683D01*
X166262513Y-90035091D01*
X166343215Y-89975245D01*
X166438120Y-89937042D01*
X166555483Y-89923490D01*
X166647132Y-89931095D01*
X166732616Y-89953523D01*
X166811212Y-89990555D01*
X166877967Y-90040413D01*
X166933436Y-90102446D01*
X166976666Y-90175850D01*
X167003967Y-90257676D01*
X167013405Y-90351088D01*
X167003290Y-90469951D01*
X166974917Y-90568313D01*
X166927940Y-90657548D01*
X166861347Y-90741947D01*
X166779334Y-90819340D01*
X166672405Y-90900711D01*
X166408382Y-91072742D01*
X166171039Y-91229756D01*
X166063398Y-91319835D01*
X165967080Y-91423509D01*
X165885837Y-91541516D01*
X165818376Y-91682429D01*
X165771731Y-91839919D01*
X165743149Y-92041507D01*
X167290841Y-92041507D01*
X167290841Y-91789584D01*
X166074089Y-91789584D01*
X166105700Y-91685111D01*
X166159376Y-91594227D01*
X166230331Y-91512786D01*
X166316390Y-91435463D01*
X166518599Y-91296819D01*
X166739322Y-91164880D01*
X166953194Y-91017925D01*
X167051379Y-90936131D01*
X167137034Y-90845895D01*
X167208971Y-90744857D01*
X167265619Y-90630419D01*
X167301438Y-90504292D01*
X167314167Y-90353129D01*
X167298891Y-90192799D01*
X167255705Y-90059074D01*
X167186195Y-89941767D01*
X167096942Y-89846951D01*
X166989027Y-89772482D01*
X166861202Y-89716762D01*
X166722606Y-89683074D01*
X166572103Y-89671568D01*
X166391717Y-89688153D01*
X166237810Y-89735423D01*
X166101876Y-89812128D01*
X165992156Y-89911536D01*
X165907202Y-90032865D01*
X165846805Y-90177454D01*
X165814489Y-90335518D01*
X165810066Y-90511747D01*
G37*
G36*
X168625021Y-89685837D02*
G01*
X168764763Y-89725072D01*
X168887291Y-89788909D01*
X168983737Y-89868820D01*
X169061190Y-89966107D01*
X169120778Y-90079484D01*
X169164848Y-90202442D01*
X169197609Y-90333594D01*
X169219341Y-90468478D01*
X169231140Y-90607822D01*
X169237847Y-90878551D01*
X169231140Y-91149426D01*
X169219343Y-91288643D01*
X169197609Y-91423509D01*
X169164803Y-91554327D01*
X169120778Y-91676015D01*
X169061294Y-91787917D01*
X168983737Y-91884930D01*
X168887499Y-91964594D01*
X168766512Y-92027073D01*
X168627892Y-92064902D01*
X168448985Y-92078828D01*
X168272825Y-92065011D01*
X168133061Y-92027073D01*
X168010687Y-91964505D01*
X167914087Y-91884930D01*
X167836614Y-91787933D01*
X167777045Y-91676015D01*
X167733096Y-91554337D01*
X167700215Y-91423509D01*
X167678590Y-91288647D01*
X167666829Y-91149426D01*
X167660123Y-90878551D01*
X167660246Y-90873594D01*
X167960885Y-90873594D01*
X167969195Y-91171878D01*
X167987075Y-91333514D01*
X168022699Y-91481970D01*
X168082260Y-91616711D01*
X168168050Y-91726895D01*
X168240769Y-91780822D01*
X168332570Y-91814697D01*
X168448985Y-91826906D01*
X168565298Y-91814697D01*
X168657001Y-91780823D01*
X168729628Y-91726895D01*
X168815500Y-91616696D01*
X168874979Y-91481970D01*
X168910677Y-91333508D01*
X168928483Y-91171878D01*
X168936939Y-90873594D01*
X168935190Y-90681882D01*
X168918570Y-90471947D01*
X168875125Y-90266822D01*
X168839421Y-90171894D01*
X168791442Y-90091876D01*
X168729454Y-90024102D01*
X168652797Y-89970143D01*
X168563029Y-89935841D01*
X168448985Y-89923490D01*
X168334813Y-89935845D01*
X168245027Y-89970143D01*
X168168341Y-90024095D01*
X168106236Y-90091876D01*
X168058371Y-90171884D01*
X168022699Y-90266822D01*
X167979254Y-90471947D01*
X167962488Y-90681882D01*
X167960885Y-90873594D01*
X167660246Y-90873594D01*
X167666829Y-90607822D01*
X167678592Y-90468475D01*
X167700215Y-90333594D01*
X167733052Y-90202432D01*
X167777045Y-90079484D01*
X167836717Y-89966091D01*
X167914087Y-89868820D01*
X168010630Y-89788893D01*
X168133061Y-89725072D01*
X168272930Y-89685833D01*
X168448985Y-89671568D01*
X168625021Y-89685837D01*
G37*
G36*
X169523592Y-90511747D02*
G01*
X169807734Y-90511747D01*
X169811474Y-90405311D01*
X169829457Y-90299479D01*
X169862819Y-90198865D01*
X169911390Y-90110683D01*
X169976039Y-90035091D01*
X170056741Y-89975245D01*
X170151646Y-89937042D01*
X170269009Y-89923490D01*
X170360658Y-89931095D01*
X170446142Y-89953523D01*
X170524738Y-89990555D01*
X170591493Y-90040413D01*
X170646962Y-90102446D01*
X170690192Y-90175850D01*
X170717493Y-90257676D01*
X170726931Y-90351088D01*
X170716816Y-90469951D01*
X170688443Y-90568313D01*
X170641466Y-90657548D01*
X170574874Y-90741947D01*
X170492860Y-90819340D01*
X170385932Y-90900711D01*
X170121908Y-91072742D01*
X169884565Y-91229756D01*
X169776924Y-91319835D01*
X169680607Y-91423509D01*
X169599363Y-91541516D01*
X169531902Y-91682429D01*
X169485257Y-91839919D01*
X169456675Y-92041507D01*
X171004367Y-92041507D01*
X171004367Y-91789584D01*
X169787615Y-91789584D01*
X169819226Y-91685111D01*
X169872902Y-91594227D01*
X169943858Y-91512786D01*
X170029916Y-91435463D01*
X170232125Y-91296819D01*
X170452848Y-91164880D01*
X170666720Y-91017925D01*
X170764905Y-90936131D01*
X170850560Y-90845895D01*
X170922497Y-90744857D01*
X170979145Y-90630419D01*
X171014964Y-90504292D01*
X171027693Y-90353129D01*
X171012417Y-90192799D01*
X170969232Y-90059074D01*
X170899721Y-89941767D01*
X170810468Y-89846951D01*
X170702553Y-89772482D01*
X170574728Y-89716762D01*
X170436132Y-89683074D01*
X170285629Y-89671568D01*
X170105243Y-89688153D01*
X169951336Y-89735423D01*
X169815402Y-89812128D01*
X169705682Y-89911536D01*
X169620728Y-90032865D01*
X169560331Y-90177454D01*
X169528015Y-90335518D01*
X169523592Y-90511747D01*
G37*
G36*
X171961906Y-90685236D02*
G01*
X171961906Y-90921850D01*
X172132478Y-90912520D01*
X172236872Y-90919850D01*
X172331188Y-90941094D01*
X172417681Y-90977490D01*
X172490098Y-91028130D01*
X172549922Y-91092925D01*
X172597107Y-91172169D01*
X172626770Y-91261838D01*
X172637198Y-91368109D01*
X172626428Y-91471249D01*
X172595357Y-91560696D01*
X172546267Y-91639634D01*
X172483391Y-91704589D01*
X172408186Y-91756090D01*
X172319671Y-91795124D01*
X172224126Y-91818869D01*
X172122419Y-91826906D01*
X172001513Y-91816738D01*
X171901900Y-91788275D01*
X171819509Y-91743255D01*
X171751387Y-91681555D01*
X171681603Y-91578087D01*
X171636634Y-91454392D01*
X171617699Y-91305420D01*
X171333557Y-91305420D01*
X171345403Y-91482882D01*
X171385312Y-91633007D01*
X171453287Y-91766827D01*
X171544076Y-91876765D01*
X171657383Y-91963727D01*
X171794832Y-92027802D01*
X171947267Y-92065598D01*
X172122419Y-92078828D01*
X172286287Y-92067330D01*
X172438197Y-92033634D01*
X172578766Y-91976271D01*
X172697263Y-91897759D01*
X172795745Y-91796638D01*
X172872793Y-91671349D01*
X172920990Y-91528240D01*
X172937960Y-91357758D01*
X172925683Y-91217915D01*
X172890291Y-91094904D01*
X172832555Y-90985560D01*
X172752002Y-90894465D01*
X172646376Y-90826331D01*
X172510071Y-90780873D01*
X172510071Y-90774167D01*
X172598589Y-90725246D01*
X172676247Y-90663378D01*
X172744061Y-90587703D01*
X172795994Y-90501554D01*
X172827064Y-90407903D01*
X172837658Y-90304436D01*
X172823093Y-90148335D01*
X172782404Y-90021460D01*
X172716213Y-89911534D01*
X172630346Y-89824937D01*
X172526235Y-89758601D01*
X172401458Y-89709910D01*
X172266042Y-89681422D01*
X172115713Y-89671568D01*
X171945345Y-89686533D01*
X171803142Y-89728717D01*
X171677968Y-89797419D01*
X171577607Y-89886314D01*
X171498594Y-89995463D01*
X171438816Y-90127303D01*
X171401321Y-90272542D01*
X171383708Y-90438270D01*
X171667850Y-90438270D01*
X171674622Y-90336376D01*
X171694530Y-90241018D01*
X171728866Y-90152412D01*
X171776463Y-90077297D01*
X171838591Y-90014590D01*
X171916857Y-89965332D01*
X172006992Y-89934424D01*
X172115713Y-89923490D01*
X172232755Y-89934720D01*
X172331805Y-89966673D01*
X172416475Y-90018399D01*
X172481766Y-90089598D01*
X172522269Y-90182091D01*
X172536896Y-90302686D01*
X172527415Y-90392180D01*
X172500157Y-90469031D01*
X172456861Y-90536294D01*
X172401458Y-90590473D01*
X172335387Y-90632503D01*
X172257711Y-90663659D01*
X172174370Y-90682275D01*
X172085680Y-90688589D01*
X172025470Y-90688589D01*
X171992084Y-90688589D01*
X171961906Y-90685236D01*
G37*
G36*
X174195310Y-89685837D02*
G01*
X174335052Y-89725072D01*
X174457580Y-89788909D01*
X174554026Y-89868820D01*
X174631479Y-89966107D01*
X174691068Y-90079484D01*
X174735137Y-90202442D01*
X174767898Y-90333594D01*
X174789630Y-90468478D01*
X174801430Y-90607822D01*
X174808136Y-90878551D01*
X174801430Y-91149426D01*
X174789632Y-91288643D01*
X174767898Y-91423509D01*
X174735093Y-91554327D01*
X174691068Y-91676015D01*
X174631583Y-91787917D01*
X174554026Y-91884930D01*
X174457788Y-91964594D01*
X174336801Y-92027073D01*
X174198181Y-92064902D01*
X174019274Y-92078828D01*
X173843114Y-92065011D01*
X173703350Y-92027073D01*
X173580977Y-91964505D01*
X173484376Y-91884930D01*
X173406903Y-91787933D01*
X173347334Y-91676015D01*
X173303386Y-91554337D01*
X173270504Y-91423509D01*
X173248879Y-91288647D01*
X173237118Y-91149426D01*
X173230412Y-90878551D01*
X173230535Y-90873594D01*
X173531174Y-90873594D01*
X173539484Y-91171878D01*
X173557364Y-91333514D01*
X173592988Y-91481970D01*
X173652549Y-91616711D01*
X173738339Y-91726895D01*
X173811058Y-91780822D01*
X173902859Y-91814697D01*
X174019274Y-91826906D01*
X174135587Y-91814697D01*
X174227290Y-91780823D01*
X174299917Y-91726895D01*
X174385789Y-91616696D01*
X174445268Y-91481970D01*
X174480966Y-91333508D01*
X174498772Y-91171878D01*
X174507228Y-90873594D01*
X174505479Y-90681882D01*
X174488859Y-90471947D01*
X174445414Y-90266822D01*
X174409710Y-90171894D01*
X174361731Y-90091876D01*
X174299743Y-90024102D01*
X174223086Y-89970143D01*
X174133318Y-89935841D01*
X174019274Y-89923490D01*
X173905102Y-89935845D01*
X173815316Y-89970143D01*
X173738630Y-90024095D01*
X173676525Y-90091876D01*
X173628660Y-90171884D01*
X173592988Y-90266822D01*
X173549543Y-90471947D01*
X173532778Y-90681882D01*
X173531174Y-90873594D01*
X173230535Y-90873594D01*
X173237118Y-90607822D01*
X173248881Y-90468475D01*
X173270504Y-90333594D01*
X173303341Y-90202432D01*
X173347334Y-90079484D01*
X173407006Y-89966091D01*
X173484376Y-89868820D01*
X173580919Y-89788893D01*
X173703350Y-89725072D01*
X173843219Y-89685833D01*
X174019274Y-89671568D01*
X174195310Y-89685837D01*
G37*
G36*
X176092748Y-89682374D02*
G01*
X176217249Y-89712902D01*
X176323403Y-89761359D01*
X176414143Y-89827416D01*
X176489346Y-89910446D01*
X176548117Y-90010984D01*
X176590426Y-90132138D01*
X176614748Y-90278048D01*
X176330606Y-90278048D01*
X176307135Y-90175631D01*
X176265887Y-90090891D01*
X176206977Y-90020586D01*
X176132633Y-89967774D01*
X176042708Y-89935085D01*
X175932895Y-89923490D01*
X175815580Y-89934298D01*
X175720118Y-89964494D01*
X175642046Y-90012421D01*
X175544368Y-90112375D01*
X175469870Y-90237227D01*
X175417969Y-90377334D01*
X175384584Y-90530408D01*
X175365991Y-90685529D01*
X175357904Y-90824755D01*
X175364611Y-90831461D01*
X175438984Y-90729912D01*
X175521762Y-90651796D01*
X175613618Y-90594264D01*
X175715170Y-90554148D01*
X175828662Y-90529282D01*
X175956221Y-90520640D01*
X176120746Y-90535791D01*
X176262085Y-90579102D01*
X176387507Y-90649345D01*
X176489369Y-90740927D01*
X176570271Y-90852397D01*
X176631513Y-90984394D01*
X176668835Y-91128608D01*
X176681665Y-91288071D01*
X176671924Y-91418748D01*
X176641573Y-91558363D01*
X176588597Y-91692057D01*
X176509488Y-91813639D01*
X176404704Y-91916996D01*
X176265438Y-92003747D01*
X176161406Y-92043923D01*
X176037353Y-92069637D01*
X175889450Y-92078828D01*
X175716082Y-92065530D01*
X175576715Y-92028822D01*
X175464767Y-91971820D01*
X175365466Y-91893288D01*
X175283485Y-91802292D01*
X175217510Y-91697737D01*
X175145745Y-91523791D01*
X175102191Y-91329913D01*
X175099300Y-91303087D01*
X175411409Y-91303087D01*
X175419900Y-91410035D01*
X175444794Y-91508649D01*
X175485913Y-91599022D01*
X175540140Y-91674411D01*
X175608710Y-91736409D01*
X175693801Y-91785502D01*
X175790113Y-91816172D01*
X175902716Y-91826906D01*
X176014968Y-91816080D01*
X176108278Y-91785502D01*
X176190098Y-91735866D01*
X176256982Y-91671058D01*
X176309791Y-91593305D01*
X176348975Y-91503693D01*
X176372755Y-91407383D01*
X176380757Y-91306295D01*
X176373527Y-91198943D01*
X176352328Y-91099129D01*
X176315477Y-91007030D01*
X176263689Y-90930015D01*
X176196721Y-90866283D01*
X176113381Y-90815716D01*
X176018043Y-90783860D01*
X175902716Y-90772563D01*
X175787423Y-90783456D01*
X175692198Y-90814113D01*
X175608262Y-90863254D01*
X175538391Y-90926807D01*
X175483326Y-91003835D01*
X175443191Y-91095776D01*
X175419475Y-91195732D01*
X175411409Y-91303087D01*
X175099300Y-91303087D01*
X175080730Y-91130740D01*
X175073763Y-90942115D01*
X175084306Y-90700470D01*
X175115458Y-90469031D01*
X175173102Y-90249594D01*
X175257602Y-90062864D01*
X175332414Y-89951829D01*
X175421224Y-89857536D01*
X175524978Y-89778577D01*
X175641040Y-89720989D01*
X175779762Y-89684551D01*
X175946161Y-89671568D01*
X176092748Y-89682374D01*
G37*
G36*
X177993470Y-92041507D02*
G01*
X177993470Y-89671568D01*
X177776245Y-89671568D01*
X177741448Y-89797796D01*
X177689209Y-89893895D01*
X177618376Y-89972389D01*
X177533799Y-90031957D01*
X177437677Y-90074017D01*
X177328237Y-90100915D01*
X177213616Y-90114752D01*
X177094392Y-90119430D01*
X177094392Y-90343361D01*
X177709328Y-90343361D01*
X177709328Y-92041507D01*
X177993470Y-92041507D01*
G37*
G36*
X180231324Y-89960812D02*
G01*
X180231324Y-89708890D01*
X179061371Y-89708890D01*
X178840793Y-90945906D01*
X179084843Y-90959172D01*
X179175145Y-90868183D01*
X179276992Y-90797201D01*
X179391885Y-90751176D01*
X179526145Y-90735241D01*
X179642658Y-90745497D01*
X179744974Y-90775041D01*
X179837158Y-90823166D01*
X179913797Y-90886278D01*
X179975756Y-90963727D01*
X180022409Y-91055538D01*
X180051041Y-91156623D01*
X180060897Y-91269410D01*
X180050307Y-91403469D01*
X180020806Y-91513315D01*
X179972690Y-91610598D01*
X179912193Y-91687532D01*
X179837868Y-91748466D01*
X179751680Y-91792062D01*
X179657855Y-91818157D01*
X179559531Y-91826906D01*
X179455569Y-91818707D01*
X179363882Y-91795124D01*
X179280527Y-91756286D01*
X179210075Y-91704881D01*
X179151558Y-91641291D01*
X179106420Y-91567839D01*
X179076080Y-91486695D01*
X179061371Y-91399016D01*
X178777229Y-91399016D01*
X178795281Y-91553416D01*
X178840647Y-91686511D01*
X178912108Y-91803941D01*
X179004514Y-91900237D01*
X179115274Y-91976329D01*
X179243461Y-92032905D01*
X179382212Y-92067144D01*
X179532706Y-92078828D01*
X179669664Y-92071069D01*
X179789756Y-92048958D01*
X179895282Y-92013807D01*
X180039577Y-91936225D01*
X180154348Y-91838569D01*
X180245047Y-91720413D01*
X180309759Y-91586500D01*
X180348702Y-91442467D01*
X180361659Y-91294486D01*
X180345751Y-91098785D01*
X180301449Y-90938908D01*
X180229298Y-90797700D01*
X180137728Y-90685236D01*
X180025269Y-90596651D01*
X179893678Y-90533470D01*
X179750043Y-90496017D01*
X179596124Y-90483318D01*
X179476447Y-90493636D01*
X179353823Y-90525306D01*
X179241818Y-90579462D01*
X179154967Y-90654620D01*
X179148261Y-90647914D01*
X179275389Y-89960812D01*
X180231324Y-89960812D01*
G37*
D12*
G36*
X117595028Y-87902232D02*
G01*
X117595028Y-85381020D01*
X117363938Y-85381020D01*
X117326920Y-85515306D01*
X117271347Y-85617539D01*
X117195992Y-85701042D01*
X117106016Y-85764413D01*
X117003759Y-85809157D01*
X116887334Y-85837772D01*
X116765397Y-85852492D01*
X116638562Y-85857469D01*
X116638562Y-86095694D01*
X117292750Y-86095694D01*
X117292750Y-87902232D01*
X117595028Y-87902232D01*
G37*
G36*
X192169029Y-117707490D02*
G01*
X192169029Y-117959208D01*
X192350490Y-117949282D01*
X192461546Y-117957079D01*
X192561883Y-117979680D01*
X192653897Y-118018399D01*
X192730936Y-118072272D01*
X192794579Y-118141202D01*
X192844775Y-118225505D01*
X192876332Y-118320897D01*
X192887426Y-118433951D01*
X192875968Y-118543675D01*
X192842914Y-118638831D01*
X192790690Y-118722808D01*
X192723801Y-118791909D01*
X192643796Y-118846697D01*
X192549631Y-118888222D01*
X192447987Y-118913483D01*
X192339788Y-118922033D01*
X192211165Y-118911216D01*
X192105194Y-118880936D01*
X192017544Y-118833043D01*
X191945073Y-118767404D01*
X191870835Y-118657332D01*
X191822995Y-118525741D01*
X191802852Y-118367261D01*
X191500573Y-118367261D01*
X191513176Y-118556050D01*
X191555632Y-118715758D01*
X191627946Y-118858120D01*
X191724529Y-118975075D01*
X191845069Y-119067587D01*
X191991291Y-119135753D01*
X192153456Y-119175961D01*
X192339788Y-119190036D01*
X192514115Y-119177804D01*
X192675722Y-119141956D01*
X192825264Y-119080932D01*
X192951325Y-118997409D01*
X193056093Y-118889833D01*
X193138058Y-118756547D01*
X193189332Y-118604303D01*
X193207385Y-118422940D01*
X193194324Y-118274170D01*
X193156674Y-118143307D01*
X193095252Y-118026984D01*
X193009557Y-117930075D01*
X192897189Y-117857592D01*
X192752184Y-117809232D01*
X192752184Y-117802098D01*
X192846352Y-117750055D01*
X192928966Y-117684238D01*
X193001110Y-117603732D01*
X193056357Y-117512084D01*
X193089411Y-117412455D01*
X193100680Y-117302384D01*
X193085186Y-117136319D01*
X193041900Y-117001346D01*
X192971484Y-116884404D01*
X192880136Y-116792279D01*
X192769380Y-116721708D01*
X192636638Y-116669910D01*
X192492578Y-116639604D01*
X192332654Y-116629120D01*
X192151412Y-116645040D01*
X192000132Y-116689917D01*
X191866968Y-116763005D01*
X191760201Y-116857574D01*
X191676144Y-116973689D01*
X191612551Y-117113945D01*
X191572662Y-117268454D01*
X191553926Y-117444760D01*
X191856204Y-117444760D01*
X191863409Y-117336363D01*
X191884587Y-117234918D01*
X191921114Y-117140657D01*
X191971750Y-117060747D01*
X192037843Y-116994038D01*
X192121105Y-116941635D01*
X192216994Y-116908755D01*
X192332654Y-116897123D01*
X192457167Y-116909069D01*
X192562539Y-116943062D01*
X192652613Y-116998089D01*
X192722072Y-117073834D01*
X192765160Y-117172230D01*
X192780721Y-117300523D01*
X192770635Y-117395729D01*
X192741637Y-117477485D01*
X192695577Y-117549042D01*
X192636638Y-117606679D01*
X192566350Y-117651391D01*
X192483715Y-117684536D01*
X192395055Y-117704340D01*
X192300704Y-117711057D01*
X192236650Y-117711057D01*
X192201134Y-117711057D01*
X192169029Y-117707490D01*
G37*
D13*
G36*
X203458370Y-96691471D02*
G01*
X203458370Y-98470216D01*
X203682451Y-98470216D01*
X203682451Y-96990462D01*
X203687445Y-96990462D01*
X204242542Y-98470216D01*
X204444149Y-98470216D01*
X204999247Y-96990462D01*
X205004241Y-96990462D01*
X205004241Y-98470216D01*
X205228212Y-98470216D01*
X205228212Y-96691471D01*
X204904577Y-96691471D01*
X204342097Y-98186207D01*
X203782006Y-96691471D01*
X203458370Y-96691471D01*
G37*
G36*
X205631209Y-96691471D02*
G01*
X205631209Y-98470216D01*
X205867666Y-98470216D01*
X205867666Y-96691471D01*
X205631209Y-96691471D01*
G37*
G36*
X207043289Y-96701127D02*
G01*
X207187181Y-96728388D01*
X207310704Y-96771305D01*
X207416795Y-96828813D01*
X207507772Y-96900786D01*
X207583413Y-96987418D01*
X207644088Y-97091259D01*
X207689687Y-97215151D01*
X207718911Y-97362777D01*
X207729355Y-97538503D01*
X207723384Y-97687587D01*
X207706385Y-97819401D01*
X207679523Y-97935854D01*
X207639210Y-98047635D01*
X207587709Y-98144184D01*
X207525251Y-98227353D01*
X207450280Y-98299134D01*
X207362041Y-98359290D01*
X207258830Y-98408007D01*
X207149260Y-98441433D01*
X207022412Y-98462692D01*
X206875592Y-98470216D01*
X206265669Y-98470216D01*
X206265669Y-98268717D01*
X206502234Y-98268717D01*
X206895460Y-98268717D01*
X206995015Y-98262529D01*
X207055306Y-98252318D01*
X207122037Y-98232782D01*
X207188002Y-98204343D01*
X207255139Y-98164494D01*
X207316564Y-98112868D01*
X207373367Y-98042791D01*
X207419576Y-97959298D01*
X207459243Y-97850304D01*
X207483785Y-97728378D01*
X207492898Y-97570964D01*
X207484684Y-97416596D01*
X207461740Y-97286630D01*
X207419859Y-97168707D01*
X207359688Y-97072972D01*
X207308353Y-97019332D01*
X207247757Y-96974740D01*
X207176754Y-96938893D01*
X207100741Y-96914446D01*
X207009541Y-96898645D01*
X206900454Y-96892969D01*
X206502234Y-96892969D01*
X206502234Y-98268717D01*
X206265669Y-98268717D01*
X206265669Y-96691471D01*
X206875592Y-96691471D01*
X207043289Y-96701127D01*
G37*
G36*
X208026608Y-96691471D02*
G01*
X208026608Y-98470216D01*
X208263065Y-98470216D01*
X208263065Y-96691471D01*
X208026608Y-96691471D01*
G37*
G36*
X209362404Y-96691471D02*
G01*
X209362404Y-98470216D01*
X209598860Y-98470216D01*
X209598860Y-96691471D01*
X209362404Y-96691471D01*
G37*
G36*
X209994366Y-96691471D02*
G01*
X209994366Y-98470216D01*
X210218446Y-98470216D01*
X210218446Y-97042682D01*
X210223440Y-97042682D01*
X211151896Y-98470216D01*
X211410717Y-98470216D01*
X211410717Y-96691471D01*
X211186746Y-96691471D01*
X211186746Y-98133878D01*
X211181752Y-98133878D01*
X210245805Y-96691471D01*
X209994366Y-96691471D01*
G37*
D14*
G36*
X166116771Y-87712529D02*
G01*
X165784265Y-87712529D01*
X165808895Y-87889912D01*
X165862401Y-88029681D01*
X165945082Y-88147948D01*
X166050236Y-88239865D01*
X166174777Y-88307672D01*
X166320131Y-88354510D01*
X166475161Y-88380586D01*
X166640866Y-88389484D01*
X166793300Y-88382159D01*
X166947781Y-88359970D01*
X167096014Y-88318799D01*
X167225524Y-88256243D01*
X167337159Y-88169901D01*
X167425130Y-88060219D01*
X167466142Y-87975902D01*
X167492126Y-87875085D01*
X167501390Y-87754156D01*
X167486276Y-87617090D01*
X167444579Y-87511217D01*
X167379041Y-87421403D01*
X167295983Y-87348461D01*
X167198622Y-87290771D01*
X167084776Y-87244563D01*
X166840301Y-87177857D01*
X166605551Y-87124970D01*
X166394343Y-87062188D01*
X166306895Y-87018805D01*
X166239776Y-86968015D01*
X166194506Y-86904186D01*
X166179212Y-86824878D01*
X166189553Y-86751939D01*
X166218280Y-86697437D01*
X166262727Y-86653837D01*
X166319960Y-86619130D01*
X166458831Y-86577844D01*
X166609474Y-86566072D01*
X166771889Y-86583645D01*
X166849217Y-86606634D01*
X166918608Y-86639944D01*
X166979233Y-86685173D01*
X167028136Y-86743159D01*
X167061578Y-86813189D01*
X167078976Y-86904550D01*
X167411482Y-86904550D01*
X167384617Y-86730586D01*
X167333175Y-86597805D01*
X167254950Y-86486727D01*
X167155235Y-86402293D01*
X167037149Y-86341373D01*
X166898989Y-86300613D01*
X166750576Y-86278898D01*
X166582178Y-86271269D01*
X166449488Y-86279497D01*
X166314330Y-86304537D01*
X166184948Y-86347163D01*
X166071732Y-86406387D01*
X165974023Y-86484944D01*
X165895669Y-86584327D01*
X165845088Y-86701887D01*
X165827257Y-86846545D01*
X165839338Y-86973402D01*
X165872657Y-87073169D01*
X165925013Y-87151755D01*
X166033834Y-87248263D01*
X166169488Y-87322017D01*
X166320591Y-87375176D01*
X166488346Y-87415849D01*
X166807204Y-87490232D01*
X166945676Y-87539343D01*
X167051679Y-87597713D01*
X167105697Y-87648638D01*
X167138025Y-87712460D01*
X167149435Y-87793395D01*
X167137095Y-87880933D01*
X167102519Y-87947962D01*
X167049431Y-88001059D01*
X166983096Y-88039917D01*
X166908287Y-88066020D01*
X166824776Y-88082909D01*
X166660485Y-88094681D01*
X166462926Y-88075573D01*
X166370836Y-88049872D01*
X166290787Y-88012621D01*
X166221866Y-87960973D01*
X166167611Y-87894051D01*
X166132074Y-87813620D01*
X166116771Y-87712529D01*
G37*
G36*
X167867676Y-85550640D02*
G01*
X167867676Y-88345810D01*
X168200183Y-88345810D01*
X168200183Y-87201059D01*
X168209765Y-87067397D01*
X168237374Y-86948395D01*
X168284264Y-86839261D01*
X168348778Y-86746400D01*
X168431746Y-86670410D01*
X168534566Y-86613159D01*
X168652505Y-86578546D01*
X168798660Y-86566072D01*
X168922018Y-86579344D01*
X169020602Y-86616423D01*
X169099946Y-86675941D01*
X169159435Y-86755288D01*
X169196327Y-86852844D01*
X169209474Y-86973815D01*
X169209474Y-88345810D01*
X169541980Y-88345810D01*
X169541980Y-87012372D01*
X169533305Y-86851881D01*
X169508712Y-86712450D01*
X169462594Y-86585275D01*
X169393214Y-86479235D01*
X169299975Y-86393053D01*
X169178083Y-86326204D01*
X169035618Y-86286202D01*
X168845747Y-86271269D01*
X168659789Y-86291059D01*
X168565959Y-86316322D01*
X168476049Y-86352477D01*
X168392291Y-86399985D01*
X168317558Y-86459275D01*
X168255393Y-86531216D01*
X168208030Y-86619301D01*
X168200183Y-86619301D01*
X168200183Y-85550640D01*
X167867676Y-85550640D01*
G37*
G36*
X170392610Y-85954629D02*
G01*
X170392610Y-85550640D01*
X170060103Y-85550640D01*
X170060103Y-85954629D01*
X170392610Y-85954629D01*
G37*
G36*
X170060103Y-86323474D02*
G01*
X170060103Y-88345810D01*
X170392610Y-88345810D01*
X170392610Y-86323474D01*
X170060103Y-86323474D01*
G37*
G36*
X171926502Y-86284938D02*
G01*
X172074013Y-86323292D01*
X172197426Y-86383868D01*
X172308916Y-86466222D01*
X172403630Y-86561304D01*
X172482846Y-86669970D01*
X172573646Y-86850984D01*
X172631612Y-87048881D01*
X172660733Y-87252096D01*
X172664880Y-87439563D01*
X171151114Y-87439563D01*
X171157083Y-87568215D01*
X171182334Y-87688133D01*
X171228531Y-87799264D01*
X171295786Y-87896269D01*
X171383577Y-87976772D01*
X171495392Y-88040770D01*
X171623591Y-88080466D01*
X171780982Y-88094681D01*
X171918799Y-88082895D01*
X172032644Y-88049847D01*
X172127137Y-87997437D01*
X172204855Y-87923802D01*
X172264259Y-87826949D01*
X172305077Y-87701610D01*
X172633659Y-87701610D01*
X172587852Y-87868986D01*
X172523229Y-88007874D01*
X172440841Y-88122656D01*
X172340221Y-88216492D01*
X172223145Y-88290289D01*
X172090818Y-88344146D01*
X171940593Y-88377737D01*
X171769211Y-88389484D01*
X171608919Y-88380073D01*
X171469683Y-88353353D01*
X171348502Y-88311006D01*
X171183915Y-88216283D01*
X171049263Y-88091439D01*
X170944327Y-87938512D01*
X170867400Y-87754156D01*
X170820530Y-87552333D01*
X170798988Y-87326453D01*
X170813622Y-87144760D01*
X171151114Y-87144760D01*
X172312924Y-87144760D01*
X172295694Y-87028475D01*
X172260037Y-86918881D01*
X172206822Y-86818448D01*
X172138909Y-86734458D01*
X172056246Y-86665425D01*
X171958922Y-86611624D01*
X171851250Y-86577738D01*
X171730142Y-86566072D01*
X171605465Y-86577832D01*
X171497268Y-86611624D01*
X171400578Y-86665920D01*
X171319329Y-86736505D01*
X171253100Y-86821795D01*
X171201954Y-86920928D01*
X171167901Y-87028674D01*
X171151114Y-87144760D01*
X170813622Y-87144760D01*
X170817101Y-87101562D01*
X170869276Y-86902844D01*
X170954806Y-86721837D01*
X171066835Y-86569485D01*
X171205720Y-86443973D01*
X171368121Y-86349747D01*
X171548554Y-86291291D01*
X171749591Y-86271269D01*
X171926502Y-86284938D01*
G37*
G36*
X173027242Y-85550640D02*
G01*
X173027242Y-88345810D01*
X173359748Y-88345810D01*
X173359748Y-85550640D01*
X173027242Y-85550640D01*
G37*
G36*
X175682858Y-88346492D02*
G01*
X175350351Y-88346492D01*
X175350351Y-88072332D01*
X175342504Y-88072332D01*
X175277251Y-88174267D01*
X175192097Y-88254492D01*
X175084380Y-88315101D01*
X174901903Y-88370430D01*
X174697110Y-88389484D01*
X174542545Y-88379235D01*
X174407262Y-88349969D01*
X174288344Y-88303159D01*
X174128133Y-88201502D01*
X173998829Y-88071820D01*
X173898512Y-87916553D01*
X173824814Y-87734537D01*
X173781052Y-87538139D01*
X173767642Y-87347949D01*
X174118252Y-87347949D01*
X174127562Y-87487337D01*
X174155444Y-87623644D01*
X174202891Y-87752162D01*
X174268895Y-87864025D01*
X174355503Y-87958537D01*
X174464407Y-88032240D01*
X174590874Y-88078378D01*
X174744026Y-88094681D01*
X174903526Y-88077146D01*
X175029617Y-88028316D01*
X175136581Y-87951200D01*
X175221204Y-87854300D01*
X175284820Y-87740591D01*
X175328855Y-87609996D01*
X175353809Y-87472036D01*
X175362123Y-87332253D01*
X175353217Y-87185632D01*
X175326808Y-87045127D01*
X175280735Y-86913151D01*
X175215404Y-86800652D01*
X175128527Y-86705882D01*
X175017845Y-86630561D01*
X174888171Y-86583135D01*
X174724577Y-86566072D01*
X174565089Y-86583650D01*
X174438987Y-86632608D01*
X174332941Y-86710138D01*
X174251152Y-86808500D01*
X174191236Y-86924115D01*
X174149472Y-87058605D01*
X174126114Y-87200791D01*
X174118252Y-87347949D01*
X173767642Y-87347949D01*
X173766126Y-87326453D01*
X173780545Y-87114715D01*
X173822766Y-86918540D01*
X173895122Y-86736774D01*
X173994906Y-86583133D01*
X174124151Y-86455405D01*
X174284420Y-86355718D01*
X174403200Y-86309844D01*
X174537257Y-86281252D01*
X174689262Y-86271269D01*
X174857477Y-86286965D01*
X175037294Y-86339852D01*
X175124568Y-86382612D01*
X175207556Y-86437608D01*
X175281004Y-86505084D01*
X175342504Y-86588080D01*
X175350351Y-86588080D01*
X175350351Y-85550640D01*
X175682858Y-85550640D01*
X175682858Y-88346492D01*
G37*
G36*
X176912910Y-86909156D02*
G01*
X175942858Y-88345810D01*
X176357425Y-88345810D01*
X177131965Y-87190994D01*
X177882962Y-88345810D01*
X178336768Y-88345810D01*
X177354944Y-86909156D01*
X178278080Y-85550640D01*
X177863513Y-85550640D01*
X177135889Y-86642844D01*
X176439656Y-85550640D01*
X175993698Y-85550640D01*
X176912910Y-86909156D01*
G37*
G36*
X178636348Y-85550640D02*
G01*
X178636348Y-88345810D01*
X180486544Y-88345810D01*
X180486544Y-88029169D01*
X179008093Y-88029169D01*
X179008093Y-85550640D01*
X178636348Y-85550640D01*
G37*
G36*
X167115853Y-84694047D02*
G01*
X165957966Y-81767854D01*
X165676299Y-81767854D01*
X166830262Y-84694047D01*
X167115853Y-84694047D01*
G37*
G36*
X168417899Y-84694047D02*
G01*
X167260013Y-81767854D01*
X166978346Y-81767854D01*
X168132309Y-84694047D01*
X168417899Y-84694047D01*
G37*
G36*
X169719946Y-84694047D02*
G01*
X168562059Y-81767854D01*
X168280393Y-81767854D01*
X169434356Y-84694047D01*
X169719946Y-84694047D01*
G37*
G36*
X171021993Y-84694047D02*
G01*
X169864106Y-81767854D01*
X169582440Y-81767854D01*
X170736403Y-84694047D01*
X171021993Y-84694047D01*
G37*
G36*
X172324040Y-84694047D02*
G01*
X171166153Y-81767854D01*
X170884487Y-81767854D01*
X172038450Y-84694047D01*
X172324040Y-84694047D01*
G37*
G36*
X173626087Y-84694047D02*
G01*
X172468200Y-81767854D01*
X172186534Y-81767854D01*
X173340497Y-84694047D01*
X173626087Y-84694047D01*
G37*
G36*
X174928134Y-84694047D02*
G01*
X173770247Y-81767854D01*
X173488580Y-81767854D01*
X174642543Y-84694047D01*
X174928134Y-84694047D01*
G37*
G36*
X176230181Y-84694047D02*
G01*
X175072294Y-81767854D01*
X174790627Y-81767854D01*
X175944590Y-84694047D01*
X176230181Y-84694047D01*
G37*
G36*
X177532228Y-84694047D02*
G01*
X176374341Y-81767854D01*
X176092674Y-81767854D01*
X177246637Y-84694047D01*
X177532228Y-84694047D01*
G37*
G36*
X178834275Y-84694047D02*
G01*
X177676388Y-81767854D01*
X177394721Y-81767854D01*
X178548684Y-84694047D01*
X178834275Y-84694047D01*
G37*
D13*
G36*
X200783305Y-118708680D02*
G01*
X200783305Y-120487425D01*
X201007386Y-120487425D01*
X201007386Y-119007671D01*
X201012380Y-119007671D01*
X201567477Y-120487425D01*
X201769084Y-120487425D01*
X202324182Y-119007671D01*
X202329176Y-119007671D01*
X202329176Y-120487425D01*
X202553147Y-120487425D01*
X202553147Y-118708680D01*
X202229512Y-118708680D01*
X201667032Y-120203416D01*
X201106941Y-118708680D01*
X200783305Y-118708680D01*
G37*
G36*
X202956144Y-118708680D02*
G01*
X202956144Y-120487425D01*
X203192601Y-120487425D01*
X203192601Y-118708680D01*
X202956144Y-118708680D01*
G37*
G36*
X204368224Y-118718336D02*
G01*
X204512116Y-118745597D01*
X204635639Y-118788514D01*
X204741730Y-118846022D01*
X204832707Y-118917995D01*
X204908348Y-119004627D01*
X204969023Y-119108468D01*
X205014622Y-119232360D01*
X205043846Y-119379986D01*
X205054290Y-119555712D01*
X205048319Y-119704796D01*
X205031320Y-119836610D01*
X205004458Y-119953063D01*
X204964145Y-120064844D01*
X204912644Y-120161393D01*
X204850186Y-120244562D01*
X204775215Y-120316343D01*
X204686976Y-120376499D01*
X204583765Y-120425216D01*
X204474195Y-120458642D01*
X204347347Y-120479901D01*
X204200527Y-120487425D01*
X203590604Y-120487425D01*
X203590604Y-120285926D01*
X203827169Y-120285926D01*
X204220395Y-120285926D01*
X204319950Y-120279738D01*
X204380241Y-120269527D01*
X204446972Y-120249991D01*
X204512937Y-120221552D01*
X204580074Y-120181703D01*
X204641499Y-120130077D01*
X204698302Y-120060000D01*
X204744511Y-119976507D01*
X204784178Y-119867513D01*
X204808720Y-119745587D01*
X204817833Y-119588173D01*
X204809619Y-119433805D01*
X204786675Y-119303839D01*
X204744794Y-119185916D01*
X204684623Y-119090181D01*
X204633288Y-119036541D01*
X204572692Y-118991949D01*
X204501689Y-118956102D01*
X204425676Y-118931655D01*
X204334476Y-118915854D01*
X204225389Y-118910178D01*
X203827169Y-118910178D01*
X203827169Y-120285926D01*
X203590604Y-120285926D01*
X203590604Y-118708680D01*
X204200527Y-118708680D01*
X204368224Y-118718336D01*
G37*
G36*
X205351543Y-118708680D02*
G01*
X205351543Y-120487425D01*
X205588000Y-120487425D01*
X205588000Y-118708680D01*
X205351543Y-118708680D01*
G37*
G36*
X207568407Y-118676133D02*
G01*
X207691207Y-118702309D01*
X207799923Y-118744290D01*
X207901317Y-118802278D01*
X207989732Y-118871124D01*
X208066343Y-118951216D01*
X208131365Y-119041299D01*
X208184842Y-119140272D01*
X208226912Y-119249121D01*
X208266956Y-119420093D01*
X208280435Y-119599246D01*
X208266956Y-119778509D01*
X208226912Y-119949589D01*
X208184847Y-120058367D01*
X208131371Y-120157306D01*
X208066343Y-120247385D01*
X207989689Y-120327386D01*
X207901277Y-120395825D01*
X207799923Y-120453118D01*
X207691278Y-120494370D01*
X207568473Y-120520117D01*
X207429061Y-120529114D01*
X207289723Y-120520120D01*
X207166913Y-120494376D01*
X207058200Y-120453118D01*
X206956915Y-120395831D01*
X206868538Y-120327392D01*
X206791888Y-120247385D01*
X206726860Y-120157306D01*
X206673384Y-120058367D01*
X206631319Y-119949589D01*
X206591275Y-119778509D01*
X206577967Y-119601526D01*
X206814252Y-119601526D01*
X206822951Y-119735123D01*
X206849102Y-119867079D01*
X206894256Y-119992206D01*
X206958645Y-120102775D01*
X207012908Y-120167757D01*
X207076494Y-120223694D01*
X207150264Y-120271053D01*
X207230596Y-120305471D01*
X207322805Y-120327003D01*
X207429170Y-120334564D01*
X207535460Y-120327003D01*
X207627597Y-120305471D01*
X207707859Y-120271053D01*
X207781698Y-120223688D01*
X207845317Y-120167750D01*
X207899586Y-120102775D01*
X207963975Y-119992206D01*
X208009129Y-119867079D01*
X208035280Y-119735123D01*
X208043979Y-119601526D01*
X208035280Y-119467929D01*
X208009129Y-119335974D01*
X207963970Y-119210864D01*
X207899586Y-119100386D01*
X207845307Y-119035352D01*
X207781686Y-118979416D01*
X207707859Y-118932109D01*
X207627591Y-118897629D01*
X207535454Y-118876062D01*
X207429170Y-118868489D01*
X207322811Y-118876062D01*
X207230602Y-118897629D01*
X207150264Y-118932109D01*
X207076505Y-118979410D01*
X207012919Y-119035345D01*
X206958645Y-119100386D01*
X206894261Y-119210864D01*
X206849102Y-119335974D01*
X206822951Y-119467929D01*
X206814252Y-119601526D01*
X206577967Y-119601526D01*
X206577796Y-119599246D01*
X206591275Y-119420093D01*
X206631319Y-119249121D01*
X206673389Y-119140272D01*
X206726866Y-119041299D01*
X206791888Y-118951216D01*
X206868494Y-118871117D01*
X206956875Y-118802272D01*
X207058200Y-118744290D01*
X207166985Y-118702303D01*
X207289789Y-118676129D01*
X207429061Y-118666991D01*
X207568407Y-118676133D01*
G37*
G36*
X209987852Y-119845800D02*
G01*
X209987852Y-118708680D01*
X209751395Y-118708680D01*
X209751395Y-119847537D01*
X209742842Y-119968143D01*
X209719146Y-120066358D01*
X209682347Y-120146245D01*
X209633167Y-120211016D01*
X209570515Y-120262986D01*
X209494229Y-120301345D01*
X209401463Y-120325794D01*
X209288470Y-120334564D01*
X209168827Y-120325753D01*
X209070350Y-120301201D01*
X208989229Y-120262784D01*
X208922494Y-120211016D01*
X208869328Y-120145661D01*
X208829896Y-120065534D01*
X208804660Y-119967514D01*
X208795581Y-119847537D01*
X208795581Y-118708680D01*
X208559124Y-118708680D01*
X208559124Y-119845800D01*
X208568270Y-119991942D01*
X208593758Y-120113324D01*
X208633410Y-120214000D01*
X208686145Y-120297334D01*
X208752046Y-120365831D01*
X208851987Y-120434076D01*
X208971938Y-120484960D01*
X209115818Y-120517480D01*
X209288470Y-120529114D01*
X209456829Y-120516950D01*
X209595958Y-120483013D01*
X209711030Y-120429884D01*
X209806113Y-120358340D01*
X209868489Y-120287410D01*
X209918307Y-120203147D01*
X209955582Y-120103412D01*
X209979375Y-119985407D01*
X209987852Y-119845800D01*
G37*
G36*
X210768441Y-118910178D02*
G01*
X210768441Y-120487425D01*
X211004898Y-120487425D01*
X211004898Y-118910178D01*
X211597342Y-118910178D01*
X211597342Y-118708680D01*
X210175997Y-118708680D01*
X210175997Y-118910178D01*
X210768441Y-118910178D01*
G37*
D12*
G36*
X167701720Y-117522928D02*
G01*
X168003998Y-117522928D01*
X168007977Y-117409698D01*
X168027107Y-117297111D01*
X168062599Y-117190075D01*
X168114270Y-117096264D01*
X168183046Y-117015847D01*
X168268899Y-116952181D01*
X168369862Y-116911540D01*
X168494716Y-116897123D01*
X168592215Y-116905213D01*
X168683156Y-116929072D01*
X168766768Y-116968468D01*
X168837785Y-117021508D01*
X168896794Y-117087502D01*
X168942783Y-117165591D01*
X168971826Y-117252640D01*
X168981867Y-117352014D01*
X168971107Y-117478464D01*
X168940922Y-117583105D01*
X168890947Y-117678035D01*
X168820104Y-117767822D01*
X168732855Y-117850154D01*
X168619102Y-117936719D01*
X168338226Y-118119730D01*
X168085733Y-118286767D01*
X167971222Y-118382596D01*
X167868756Y-118492887D01*
X167782327Y-118618427D01*
X167710560Y-118768334D01*
X167660938Y-118935877D01*
X167630531Y-119150332D01*
X169277011Y-119150332D01*
X169277011Y-118882329D01*
X167982595Y-118882329D01*
X168016224Y-118771187D01*
X168073325Y-118674502D01*
X168148810Y-118587862D01*
X168240362Y-118505605D01*
X168455477Y-118358110D01*
X168690290Y-118217750D01*
X168917813Y-118061415D01*
X169022265Y-117974400D01*
X169113387Y-117878404D01*
X169189916Y-117770917D01*
X169250180Y-117649175D01*
X169288286Y-117514997D01*
X169301826Y-117354185D01*
X169285576Y-117183621D01*
X169239634Y-117041360D01*
X169165686Y-116916566D01*
X169070736Y-116815698D01*
X168955933Y-116736476D01*
X168819949Y-116677199D01*
X168672506Y-116641361D01*
X168512397Y-116629120D01*
X168320497Y-116646763D01*
X168156766Y-116697051D01*
X168012155Y-116778653D01*
X167895432Y-116884405D01*
X167805056Y-117013479D01*
X167740803Y-117167297D01*
X167706425Y-117335450D01*
X167701720Y-117522928D01*
G37*
D15*
X197912661Y-117279942D02*
X197912661Y-116890475D01*
X198524680Y-116723561D02*
X198524680Y-117279942D01*
X198524680Y-117279942D02*
X197356280Y-117279942D01*
X197356280Y-117279942D02*
X197356280Y-116723561D01*
X197467556Y-116278456D02*
X197411918Y-116222818D01*
X197411918Y-116222818D02*
X197356280Y-116111542D01*
X197356280Y-116111542D02*
X197356280Y-115833351D01*
X197356280Y-115833351D02*
X197411918Y-115722075D01*
X197411918Y-115722075D02*
X197467556Y-115666437D01*
X197467556Y-115666437D02*
X197578832Y-115610799D01*
X197578832Y-115610799D02*
X197690108Y-115610799D01*
X197690108Y-115610799D02*
X197857022Y-115666437D01*
X197857022Y-115666437D02*
X198524680Y-116334094D01*
X198524680Y-116334094D02*
X198524680Y-115610799D01*
X113774669Y-86989346D02*
X114164136Y-86989346D01*
X114331050Y-87601365D02*
X113774669Y-87601365D01*
X113774669Y-87601365D02*
X113774669Y-86432965D01*
X113774669Y-86432965D02*
X114331050Y-86432965D01*
X115443812Y-87601365D02*
X114776155Y-87601365D01*
X115109983Y-87601365D02*
X115109983Y-86432965D01*
X115109983Y-86432965D02*
X114998707Y-86599879D01*
X114998707Y-86599879D02*
X114887431Y-86711155D01*
X114887431Y-86711155D02*
X114776155Y-86766793D01*
X174100047Y-116841673D02*
X174100047Y-116452206D01*
X174712066Y-116285292D02*
X174712066Y-116841673D01*
X174712066Y-116841673D02*
X173543666Y-116841673D01*
X173543666Y-116841673D02*
X173543666Y-116285292D01*
X173543666Y-115895825D02*
X173543666Y-115172530D01*
X173543666Y-115172530D02*
X173988770Y-115561997D01*
X173988770Y-115561997D02*
X173988770Y-115395082D01*
X173988770Y-115395082D02*
X174044408Y-115283806D01*
X174044408Y-115283806D02*
X174100047Y-115228168D01*
X174100047Y-115228168D02*
X174211323Y-115172530D01*
X174211323Y-115172530D02*
X174489513Y-115172530D01*
X174489513Y-115172530D02*
X174600789Y-115228168D01*
X174600789Y-115228168D02*
X174656428Y-115283806D01*
X174656428Y-115283806D02*
X174712066Y-115395082D01*
X174712066Y-115395082D02*
X174712066Y-115728911D01*
X174712066Y-115728911D02*
X174656428Y-115840187D01*
X174656428Y-115840187D02*
X174600789Y-115895825D01*
X163958670Y-131100561D02*
X163958670Y-131623075D01*
X163958670Y-131361818D02*
X163044270Y-131361818D01*
X163044270Y-131361818D02*
X163174899Y-131448904D01*
X163174899Y-131448904D02*
X163261985Y-131535989D01*
X163261985Y-131535989D02*
X163305528Y-131623075D01*
D13*
%TO.C,SW2*%
X165398135Y-121193295D02*
X180638135Y-121193295D01*
X165398135Y-136433295D02*
X165398135Y-121193295D01*
D16*
X166018135Y-122813295D02*
X166018135Y-121813295D01*
X166018135Y-135813295D02*
X166018135Y-134813295D01*
X166018135Y-135813295D02*
X167018135Y-135813295D01*
X167018135Y-121813295D02*
X166018135Y-121813295D01*
X179018135Y-135813295D02*
X180018135Y-135813295D01*
X180018135Y-121813295D02*
X179018135Y-121813295D01*
X180018135Y-121813295D02*
X180018135Y-122813295D01*
X180018135Y-134813295D02*
X180018135Y-135813295D01*
D13*
X180638135Y-121193295D02*
X180638135Y-136433295D01*
X180638135Y-136433295D02*
X165398135Y-136433295D01*
D17*
X164258135Y-120558295D02*
X181778135Y-120558295D01*
X181778135Y-137068295D01*
X164258135Y-137068295D01*
X164258135Y-120558295D01*
X171168135Y-121563295D02*
X174868135Y-121563295D01*
X174868135Y-124863295D01*
X171168135Y-124863295D01*
X171168135Y-121563295D01*
D18*
X172232716Y-122942425D02*
X173801127Y-122942425D01*
X173801127Y-124518921D01*
X172232716Y-124518921D01*
X172232716Y-122942425D01*
D19*
X173019565Y-123729227D02*
G75*
G02*
X173018565Y-123729227I-500J0D01*
G01*
X173018565Y-123729227D02*
G75*
G02*
X173019565Y-123729227I500J0D01*
G01*
D13*
%TO.C,E2*%
X196995058Y-105577585D02*
X196995058Y-117577585D01*
X196995058Y-117577585D02*
X209995058Y-117577585D01*
X209995058Y-105577585D02*
X196995058Y-105577585D01*
X209995058Y-117577585D02*
X209995058Y-105577585D01*
X206495058Y-111577585D02*
G75*
G02*
X200495058Y-111577585I-3000000J0D01*
G01*
X200495058Y-111577585D02*
G75*
G02*
X206495058Y-111577585I3000000J0D01*
G01*
%TO.C,SW3*%
X188987718Y-121175933D02*
X204227718Y-121175933D01*
X188987718Y-136415933D02*
X188987718Y-121175933D01*
D16*
X189607718Y-122795933D02*
X189607718Y-121795933D01*
X189607718Y-135795933D02*
X189607718Y-134795933D01*
X189607718Y-135795933D02*
X190607718Y-135795933D01*
X190607718Y-121795933D02*
X189607718Y-121795933D01*
X202607718Y-135795933D02*
X203607718Y-135795933D01*
X203607718Y-121795933D02*
X202607718Y-121795933D01*
X203607718Y-121795933D02*
X203607718Y-122795933D01*
X203607718Y-134795933D02*
X203607718Y-135795933D01*
D13*
X204227718Y-121175933D02*
X204227718Y-136415933D01*
X204227718Y-136415933D02*
X188987718Y-136415933D01*
D17*
X187847718Y-120540933D02*
X205367718Y-120540933D01*
X205367718Y-137050933D01*
X187847718Y-137050933D01*
X187847718Y-120540933D01*
X194757718Y-121545933D02*
X198457718Y-121545933D01*
X198457718Y-124845933D01*
X194757718Y-124845933D01*
X194757718Y-121545933D01*
D18*
X195822299Y-122925063D02*
X197390710Y-122925063D01*
X197390710Y-124501559D01*
X195822299Y-124501559D01*
X195822299Y-122925063D01*
D19*
X196609148Y-123711865D02*
G75*
G02*
X196608148Y-123711865I-500J0D01*
G01*
X196608148Y-123711865D02*
G75*
G02*
X196609148Y-123711865I500J0D01*
G01*
D13*
%TO.C,SW1*%
X84087658Y-74196663D02*
X99327658Y-74196663D01*
X84087658Y-89436663D02*
X84087658Y-74196663D01*
D16*
X84707658Y-75816663D02*
X84707658Y-74816663D01*
X84707658Y-88816663D02*
X84707658Y-87816663D01*
X84707658Y-88816663D02*
X85707658Y-88816663D01*
X85707658Y-74816663D02*
X84707658Y-74816663D01*
X97707658Y-88816663D02*
X98707658Y-88816663D01*
X98707658Y-74816663D02*
X97707658Y-74816663D01*
X98707658Y-74816663D02*
X98707658Y-75816663D01*
X98707658Y-87816663D02*
X98707658Y-88816663D01*
D13*
X99327658Y-74196663D02*
X99327658Y-89436663D01*
X99327658Y-89436663D02*
X84087658Y-89436663D01*
D17*
X82947658Y-73561663D02*
X100467658Y-73561663D01*
X100467658Y-90071663D01*
X82947658Y-90071663D01*
X82947658Y-73561663D01*
X89857658Y-74566663D02*
X93557658Y-74566663D01*
X93557658Y-77866663D01*
X89857658Y-77866663D01*
X89857658Y-74566663D01*
D18*
X90922239Y-75945793D02*
X92490650Y-75945793D01*
X92490650Y-77522289D01*
X90922239Y-77522289D01*
X90922239Y-75945793D01*
D19*
X91709088Y-76732595D02*
G75*
G02*
X91708088Y-76732595I-500J0D01*
G01*
X91708088Y-76732595D02*
G75*
G02*
X91709088Y-76732595I500J0D01*
G01*
D13*
%TO.C,E1*%
X103631361Y-75334032D02*
X103631361Y-88334032D01*
X103631361Y-88334032D02*
X115631361Y-88334032D01*
X115631361Y-75334032D02*
X103631361Y-75334032D01*
X115631361Y-88334032D02*
X115631361Y-75334032D01*
X112631361Y-81834032D02*
G75*
G02*
X106631361Y-81834032I-3000000J0D01*
G01*
X106631361Y-81834032D02*
G75*
G02*
X112631361Y-81834032I3000000J0D01*
G01*
%TO.C,E3*%
X172876520Y-105581217D02*
X172876520Y-117581217D01*
X172876520Y-117581217D02*
X185876520Y-117581217D01*
X185876520Y-105581217D02*
X172876520Y-105581217D01*
X185876520Y-117581217D02*
X185876520Y-105581217D01*
X182376520Y-111581217D02*
G75*
G02*
X176376520Y-111581217I-3000000J0D01*
G01*
X176376520Y-111581217D02*
G75*
G02*
X182376520Y-111581217I3000000J0D01*
G01*
%TO.C,X1*%
X157408360Y-82016589D02*
X157408360Y-132816589D01*
X157408360Y-132816589D02*
X159948360Y-132816589D01*
X159948360Y-130276589D02*
X162488360Y-130276589D01*
X159948360Y-132816589D02*
X159948360Y-130276589D01*
X159948360Y-132816589D02*
X162488360Y-132816589D01*
X162488360Y-82016589D02*
X157408360Y-82016589D01*
X162488360Y-130276589D02*
X162488360Y-82016589D01*
X162488360Y-131229089D02*
X162488360Y-130276589D01*
X162488360Y-131864089D02*
X162488360Y-131229089D01*
X162488360Y-131864089D02*
X162805860Y-131864089D01*
X162488360Y-132816589D02*
X162488360Y-131864089D01*
X162805860Y-131229089D02*
X162488360Y-131229089D01*
X162805860Y-131864089D02*
X162805860Y-131229089D01*
%TD*%
%LPC*%
D20*
%TO.C,SW2*%
X173018135Y-128813295D03*
D21*
X173018135Y-134713295D03*
D22*
X176828135Y-131353295D03*
D21*
X168018135Y-132613295D03*
D22*
X170478135Y-133893295D03*
%TD*%
D23*
%TO.C,E2*%
X203495058Y-105862585D03*
X203495058Y-117292585D03*
D24*
X195995058Y-109077585D03*
X195995058Y-114077585D03*
X195995058Y-111577585D03*
%TD*%
D20*
%TO.C,SW3*%
X196607718Y-128795933D03*
D21*
X196607718Y-134695933D03*
D22*
X200417718Y-131335933D03*
D21*
X191607718Y-132595933D03*
D22*
X194067718Y-133875933D03*
%TD*%
D20*
%TO.C,SW1*%
X91707658Y-81816663D03*
D21*
X91707658Y-87716663D03*
D22*
X95517658Y-84356663D03*
D21*
X86707658Y-85616663D03*
D22*
X89167658Y-86896663D03*
%TD*%
D25*
%TO.C,E1*%
X103916361Y-81834032D03*
X115346361Y-81834032D03*
D26*
X107131361Y-89334032D03*
X112131361Y-89334032D03*
X109631361Y-89334032D03*
%TD*%
D23*
%TO.C,E3*%
X179376520Y-105866217D03*
X179376520Y-117296217D03*
D24*
X171876520Y-109081217D03*
X171876520Y-114081217D03*
X171876520Y-111581217D03*
%TD*%
D27*
%TO.C,X1*%
X159948360Y-136416589D03*
D28*
X208948360Y-136416589D03*
X159948360Y-78416589D03*
X208948360Y-78416589D03*
D29*
X161218360Y-131546589D03*
D30*
X158678360Y-131546589D03*
X161218360Y-129006589D03*
X158678360Y-129006589D03*
X161218360Y-126466589D03*
X158678360Y-126466589D03*
X161218360Y-123926589D03*
X158678360Y-123926589D03*
X161218360Y-121386589D03*
X158678360Y-121386589D03*
X161218360Y-118846589D03*
X158678360Y-118846589D03*
X161218360Y-116306589D03*
X158678360Y-116306589D03*
X161218360Y-113766589D03*
X158678360Y-113766589D03*
X161218360Y-111226589D03*
X158678360Y-111226589D03*
X161218360Y-108686589D03*
X158678360Y-108686589D03*
X161218360Y-106146589D03*
X158678360Y-106146589D03*
X161218360Y-103606589D03*
X158678360Y-103606589D03*
X161218360Y-101066589D03*
X158678360Y-101066589D03*
X161218360Y-98526589D03*
X158678360Y-98526589D03*
X161218360Y-95986589D03*
X158678360Y-95986589D03*
X161218360Y-93446589D03*
X158678360Y-93446589D03*
X161218360Y-90906589D03*
X158678360Y-90906589D03*
X161218360Y-88366589D03*
X158678360Y-88366589D03*
X161218360Y-85826589D03*
X158678360Y-85826589D03*
X161218360Y-83286589D03*
X158678360Y-83286589D03*
%TD*%
D31*
%TO.C,J2*%
X147361373Y-69252122D03*
D32*
X138061373Y-62902122D03*
X149491373Y-62902122D03*
D31*
X149491373Y-66052122D03*
X138061373Y-66052122D03*
X149491373Y-59702122D03*
X138061373Y-59702122D03*
X149491373Y-72402122D03*
X138061373Y-72402122D03*
%TD*%
D33*
%TO.C,J6*%
X210176863Y-95650260D03*
X204176863Y-95650260D03*
%TD*%
D34*
%TO.C,S1*%
X183413475Y-135933795D03*
X186413475Y-135933795D03*
%TD*%
D31*
%TO.C,J1*%
X130582740Y-69252122D03*
D32*
X121282740Y-62902122D03*
X132712740Y-62902122D03*
D31*
X132712740Y-66052122D03*
X121282740Y-66052122D03*
X132712740Y-59702122D03*
X121282740Y-59702122D03*
X132712740Y-72402122D03*
X121282740Y-72402122D03*
%TD*%
%TO.C,J4*%
X96936853Y-69252122D03*
D32*
X87636853Y-62902122D03*
X99066853Y-62902122D03*
D31*
X99066853Y-66052122D03*
X87636853Y-66052122D03*
X99066853Y-59702122D03*
X87636853Y-59702122D03*
X99066853Y-72402122D03*
X87636853Y-72402122D03*
%TD*%
D33*
%TO.C,J3*%
X210176863Y-122086142D03*
X204176863Y-122086142D03*
%TD*%
D31*
%TO.C,J5*%
X113738103Y-69252122D03*
D32*
X104438103Y-62902122D03*
X115868103Y-62902122D03*
D31*
X115868103Y-66052122D03*
X104438103Y-66052122D03*
X115868103Y-59702122D03*
X104438103Y-59702122D03*
X115868103Y-72402122D03*
X104438103Y-72402122D03*
%TD*%
%LPD*%
M02*
