M48
; DRILL file {KiCad 9.0.6} date 2025-11-16T15:37:37+1000
; FORMAT={-:-/ absolute / inch / decimal}
; #@! TF.CreationDate,2025-11-16T15:37:37+10:00
; #@! TF.GenerationSoftware,Kicad,Pcbnew,9.0.6
; #@! TF.FileFunction,NonPlated,1,2,NPTH
FMAT,2
INCH
; #@! TA.AperFunction,NonPlated,NPTH,ComponentDrill
T1C0.0394
; #@! TA.AperFunction,NonPlated,NPTH,ComponentDrill
T2C0.0472
; #@! TA.AperFunction,NonPlated,NPTH,ComponentDrill
T3C0.0787
; #@! TA.AperFunction,NonPlated,NPTH,ComponentDrill
T4C0.1181
; #@! TA.AperFunction,NonPlated,NPTH,ComponentDrill
T5C0.1575
%
G90
G05
T1
X7.221Y-5.3517
X7.3391Y-5.3517
T2
X8.0385Y-3.7658
X8.0385Y-4.8065
X8.2747Y-3.7658
X8.2747Y-4.8065
T3
X3.4503Y-2.4765
X3.9003Y-2.4765
X4.1117Y-2.4765
X4.5617Y-2.4765
X4.7749Y-2.4765
X5.2249Y-2.4765
X5.4355Y-2.4765
X5.8855Y-2.4765
T4
X3.8164Y-2.7265
X4.4779Y-2.7265
X5.1411Y-2.7265
X5.8016Y-2.7265
X6.2972Y-3.0873
X6.2972Y-5.3707
X8.2263Y-3.0873
X8.2263Y-5.3707
T5
X3.6105Y-3.2211
X6.8117Y-5.0714
X7.7405Y-5.0707
M30
