%TF.GenerationSoftware,KiCad,Pcbnew,9.0.6*%
%TF.CreationDate,2025-11-29T22:38:19+10:00*%
%TF.ProjectId,ShieldXL-M,53686965-6c64-4584-9c2d-4d2e6b696361,rev?*%
%TF.SameCoordinates,Original*%
%TF.FileFunction,Profile,NP*%
%FSLAX46Y46*%
G04 Gerber Fmt 4.6, Leading zero omitted, Abs format (unit mm)*
G04 Created by KiCad (PCBNEW 9.0.6) date 2025-11-29 22:38:19*
%MOMM*%
%LPD*%
G01*
G04 APERTURE LIST*
%TA.AperFunction,Profile*%
%ADD10C,0.050000*%
%TD*%
%ADD11C,0.127000*%
%TA.AperFunction,Profile*%
%ADD12C,0.127000*%
%TD*%
%TA.AperFunction,Profile*%
%ADD13C,0.010000*%
%TD*%
G04 APERTURE END LIST*
D10*
X133701212Y-124657802D02*
X109493236Y-124657802D01*
X108493236Y-123657802D02*
X108493236Y-121598655D01*
X84455181Y-94018620D02*
G75*
G02*
X81255181Y-94018620I-1600000J0D01*
G01*
X81255181Y-94018620D02*
G75*
G02*
X84455181Y-94018620I1600000J0D01*
G01*
D11*
X212411447Y-77439136D02*
X212411428Y-77424315D01*
X212411328Y-77409503D01*
X212411149Y-77394701D01*
X212410890Y-77379908D01*
X212410552Y-77365125D01*
X212410133Y-77350352D01*
X212409635Y-77335590D01*
X212409058Y-77320838D01*
X212408400Y-77306097D01*
X212407664Y-77291367D01*
X212406847Y-77276648D01*
X212405952Y-77261940D01*
X212404977Y-77247244D01*
X212403922Y-77232560D01*
X212402789Y-77217888D01*
X212401576Y-77203228D01*
X212400284Y-77188581D01*
X212398913Y-77173946D01*
X212397463Y-77159325D01*
X212395933Y-77144717D01*
X212394325Y-77130123D01*
X212392638Y-77115542D01*
X212390872Y-77100975D01*
X212389028Y-77086423D01*
X212387104Y-77071885D01*
X212385102Y-77057362D01*
X212383022Y-77042854D01*
X212380862Y-77028361D01*
X212378625Y-77013884D01*
X212376308Y-76999422D01*
X212373914Y-76984977D01*
X212371441Y-76970548D01*
X212368890Y-76956136D01*
X212366260Y-76941740D01*
X212363553Y-76927362D01*
X212360768Y-76913001D01*
X212357904Y-76898658D01*
X212354963Y-76884333D01*
X212351943Y-76870027D01*
X212348846Y-76855738D01*
X212345672Y-76841469D01*
X212342419Y-76827219D01*
X212339089Y-76812989D01*
X212335682Y-76798778D01*
X212332197Y-76784588D01*
X212328635Y-76770417D01*
X212324996Y-76756268D01*
X212321279Y-76742139D01*
X212317486Y-76728032D01*
X212313615Y-76713946D01*
X212309668Y-76699883D01*
X212305644Y-76685841D01*
X212301543Y-76671822D01*
X212297365Y-76657826D01*
X212293111Y-76643853D01*
X212288781Y-76629904D01*
X212284374Y-76615978D01*
X212279891Y-76602077D01*
X212275332Y-76588200D01*
X212270697Y-76574348D01*
X212265986Y-76560522D01*
X212261199Y-76546720D01*
X212256337Y-76532945D01*
X212251399Y-76519196D01*
X212246386Y-76505473D01*
X212241297Y-76491777D01*
X212236133Y-76478108D01*
X212230894Y-76464467D01*
X212225581Y-76450854D01*
X212220192Y-76437269D01*
X212214729Y-76423713D01*
X212209191Y-76410186D01*
X212203579Y-76396688D01*
X212197892Y-76383219D01*
X212192132Y-76369781D01*
X212186297Y-76356373D01*
X212180389Y-76342996D01*
X212174407Y-76329650D01*
X212168351Y-76316336D01*
X212162222Y-76303053D01*
X212156020Y-76289803D01*
X212149745Y-76276585D01*
X212143397Y-76263400D01*
X212136977Y-76250249D01*
X212130483Y-76237131D01*
X212123918Y-76224048D01*
X212117280Y-76210998D01*
X212110571Y-76197984D01*
X212103789Y-76185005D01*
X212096936Y-76172062D01*
X212090011Y-76159154D01*
X212083016Y-76146283D01*
X212075949Y-76133449D01*
X212068811Y-76120651D01*
X212061603Y-76107892D01*
X212054324Y-76095170D01*
X212046975Y-76082486D01*
X212039556Y-76069842D01*
X212032067Y-76057236D01*
X212024509Y-76044669D01*
X212016881Y-76032143D01*
X212009184Y-76019656D01*
X212001418Y-76007211D01*
X211993584Y-75994806D01*
X211985681Y-75982442D01*
X211977709Y-75970121D01*
X211969670Y-75957841D01*
X211961563Y-75945604D01*
X211953388Y-75933410D01*
X211945147Y-75921259D01*
X211936838Y-75909152D01*
X211928462Y-75897089D01*
X211920020Y-75885071D01*
X211911512Y-75873097D01*
X211902938Y-75861169D01*
X211894298Y-75849286D01*
X211885593Y-75837449D01*
X211876822Y-75825659D01*
X211867987Y-75813915D01*
X211859087Y-75802219D01*
X211850123Y-75790570D01*
X211841094Y-75778969D01*
X211832002Y-75767417D01*
X211822847Y-75755913D01*
X211813628Y-75744458D01*
X211804346Y-75733053D01*
X211795002Y-75721697D01*
X211785596Y-75710392D01*
X211776127Y-75699137D01*
X211766597Y-75687933D01*
X211757006Y-75676781D01*
X211747353Y-75665680D01*
X211737640Y-75654632D01*
X211727866Y-75643635D01*
X211718033Y-75632692D01*
X211708139Y-75621802D01*
X211698186Y-75610965D01*
X211688174Y-75600182D01*
X211678104Y-75589454D01*
X211667974Y-75578780D01*
X211657787Y-75568161D01*
X211647542Y-75557597D01*
X211637239Y-75547089D01*
X211626880Y-75536637D01*
X211626310Y-75536066D01*
D12*
X157586886Y-65988845D02*
X157579996Y-57712520D01*
X146159505Y-139947982D02*
X209893082Y-139947982D01*
X154368478Y-55187954D02*
X153591265Y-55190882D01*
D11*
X211626310Y-75536066D02*
X211621107Y-75530863D01*
X211615890Y-75525674D01*
X211610660Y-75520499D01*
X211605415Y-75515338D01*
X211600156Y-75510192D01*
X211594883Y-75505059D01*
X211589596Y-75499942D01*
X211584295Y-75494838D01*
X211578981Y-75489749D01*
X211573652Y-75484675D01*
X211568310Y-75479615D01*
X211562954Y-75474570D01*
X211557585Y-75469539D01*
X211552202Y-75464523D01*
X211546805Y-75459522D01*
X211541395Y-75454535D01*
X211535971Y-75449563D01*
X211530534Y-75444606D01*
X211525084Y-75439664D01*
X211519620Y-75434737D01*
X211514143Y-75429825D01*
X211508653Y-75424927D01*
X211503149Y-75420045D01*
X211497632Y-75415178D01*
X211492103Y-75410326D01*
X211486560Y-75405489D01*
X211481004Y-75400667D01*
X211475435Y-75395861D01*
X211469854Y-75391070D01*
X211464259Y-75386294D01*
X211458651Y-75381533D01*
X211453031Y-75376788D01*
X211447398Y-75372058D01*
X211441752Y-75367344D01*
X211436094Y-75362645D01*
X211430423Y-75357962D01*
X211424740Y-75353294D01*
X211419044Y-75348642D01*
X211413336Y-75344006D01*
X211407615Y-75339385D01*
X211401882Y-75334780D01*
X211396136Y-75330190D01*
X211390378Y-75325617D01*
X211384608Y-75321059D01*
X211378826Y-75316518D01*
X211373032Y-75311992D01*
X211367226Y-75307482D01*
X211361407Y-75302988D01*
X211355577Y-75298511D01*
X211349734Y-75294049D01*
X211343881Y-75289603D01*
X211338014Y-75285173D01*
X211332137Y-75280760D01*
X211326247Y-75276363D01*
X211320346Y-75271982D01*
X211314433Y-75267617D01*
X211308509Y-75263269D01*
X211302572Y-75258937D01*
X211296625Y-75254621D01*
X211290666Y-75250322D01*
X211284696Y-75246039D01*
X211278714Y-75241773D01*
X211272721Y-75237523D01*
X211266717Y-75233290D01*
X211260702Y-75229073D01*
X211254675Y-75224873D01*
X211248637Y-75220690D01*
X211242588Y-75216523D01*
X211236529Y-75212373D01*
X211230457Y-75208239D01*
X211224376Y-75204123D01*
X211218283Y-75200023D01*
X211212180Y-75195940D01*
X211206066Y-75191874D01*
X211199941Y-75187825D01*
X211193805Y-75183793D01*
X211187660Y-75179778D01*
X211181502Y-75175779D01*
X211175336Y-75171798D01*
X211169157Y-75167833D01*
X211162970Y-75163887D01*
X211156771Y-75159956D01*
X211150562Y-75156044D01*
X211144342Y-75152148D01*
X211138114Y-75148269D01*
X211131873Y-75144408D01*
X211125624Y-75140564D01*
X211119364Y-75136737D01*
X211113095Y-75132928D01*
X211106814Y-75129135D01*
X211100525Y-75125361D01*
X211094225Y-75121603D01*
X211087916Y-75117864D01*
X211081596Y-75114141D01*
X211075267Y-75110436D01*
X211068928Y-75106748D01*
X211062580Y-75103079D01*
X211056221Y-75099426D01*
X211049854Y-75095791D01*
X211043477Y-75092174D01*
X211037091Y-75088574D01*
X211030694Y-75084992D01*
X211024289Y-75081428D01*
X211017874Y-75077881D01*
X211011451Y-75074353D01*
X211005017Y-75070842D01*
X210998575Y-75067349D01*
X210992123Y-75063873D01*
X210985663Y-75060416D01*
X210979193Y-75056976D01*
X210972715Y-75053554D01*
X210966227Y-75050150D01*
X210959731Y-75046764D01*
X210953225Y-75043396D01*
X210946712Y-75040046D01*
X210940188Y-75036714D01*
X210933658Y-75033400D01*
X210927117Y-75030104D01*
X210920569Y-75026826D01*
X210914011Y-75023566D01*
X210907446Y-75020324D01*
X210900871Y-75017100D01*
X210894289Y-75013895D01*
X210887697Y-75010708D01*
X210881099Y-75007539D01*
X210874490Y-75004388D01*
X210867875Y-75001256D01*
X210861250Y-74998141D01*
X210854619Y-74995046D01*
X210847978Y-74991967D01*
X210841331Y-74988908D01*
X210834673Y-74985867D01*
X210828010Y-74982845D01*
X210821337Y-74979840D01*
X210814658Y-74976855D01*
X210807969Y-74973887D01*
X210801275Y-74970938D01*
X210794570Y-74968007D01*
X210787860Y-74965096D01*
X210781141Y-74962202D01*
X210774416Y-74959327D01*
X210767681Y-74956470D01*
X210760941Y-74953633D01*
X210754191Y-74950813D01*
X210747436Y-74948013D01*
X210740672Y-74945230D01*
X210733902Y-74942467D01*
X210727123Y-74939722D01*
X210720339Y-74936996D01*
X210713546Y-74934288D01*
X210706747Y-74931600D01*
X210699940Y-74928929D01*
X210693127Y-74926278D01*
X210686305Y-74923645D01*
X210679479Y-74921032D01*
X210672643Y-74918436D01*
X210665803Y-74915860D01*
X210658954Y-74913302D01*
X210652100Y-74910764D01*
X210645237Y-74908244D01*
X210638369Y-74905743D01*
X210631493Y-74903261D01*
X210624613Y-74900798D01*
X210617723Y-74898354D01*
X210610830Y-74895929D01*
X210603927Y-74893522D01*
X210597021Y-74891135D01*
X210590106Y-74888766D01*
X210583186Y-74886417D01*
X210576258Y-74884086D01*
X210569326Y-74881775D01*
X210562386Y-74879482D01*
X210555442Y-74877209D01*
X210548489Y-74874954D01*
X210541532Y-74872719D01*
X210534568Y-74870502D01*
X210527599Y-74868305D01*
X210520622Y-74866127D01*
X210513641Y-74863968D01*
X210506653Y-74861828D01*
X210499660Y-74859708D01*
X210492660Y-74857606D01*
X210485656Y-74855524D01*
X210478644Y-74853460D01*
X210471629Y-74851416D01*
X210464606Y-74849391D01*
X210457579Y-74847386D01*
X210450545Y-74845399D01*
X210443507Y-74843432D01*
X210436461Y-74841484D01*
X210429413Y-74839555D01*
X210422356Y-74837646D01*
X210415297Y-74835756D01*
X210408230Y-74833885D01*
X210401160Y-74832033D01*
X210394082Y-74830201D01*
X210387002Y-74828388D01*
X210379913Y-74826594D01*
X210372823Y-74824820D01*
X210365724Y-74823065D01*
X210358623Y-74821330D01*
X210351515Y-74819613D01*
X210344404Y-74817917D01*
X210337285Y-74816239D01*
X210330164Y-74814581D01*
X210323036Y-74812943D01*
X210315906Y-74811324D01*
X210308768Y-74809724D01*
X210301627Y-74808144D01*
X210294480Y-74806583D01*
X210287330Y-74805041D01*
X210280174Y-74803519D01*
X210273015Y-74802017D01*
X210265849Y-74800534D01*
X210258681Y-74799071D01*
X210251506Y-74797626D01*
X210244329Y-74796202D01*
X210237145Y-74794797D01*
X210229959Y-74793412D01*
X210222766Y-74792046D01*
X210215572Y-74790700D01*
X210208370Y-74789373D01*
X210201167Y-74788066D01*
X210193957Y-74786778D01*
X210186745Y-74785510D01*
X210179527Y-74784262D01*
X210172307Y-74783033D01*
X210165081Y-74781823D01*
X210157853Y-74780634D01*
X210150618Y-74779464D01*
X210143382Y-74778314D01*
X210136140Y-74777183D01*
X210128896Y-74776072D01*
X210121645Y-74774980D01*
X210114393Y-74773909D01*
X210107135Y-74772856D01*
X210099876Y-74771824D01*
X210092610Y-74770811D01*
X210085344Y-74769818D01*
X210078071Y-74768845D01*
X210070796Y-74767891D01*
X210063516Y-74766957D01*
X210056234Y-74766043D01*
X210048947Y-74765148D01*
X210041658Y-74764274D01*
X210034364Y-74763418D01*
X210027068Y-74762583D01*
X210019767Y-74761768D01*
X210012464Y-74760972D01*
X210005156Y-74760196D01*
X209997847Y-74759440D01*
X209990532Y-74758703D01*
X209983216Y-74757986D01*
X209975895Y-74757289D01*
X209968572Y-74756612D01*
X209961244Y-74755955D01*
X209953916Y-74755318D01*
X209946582Y-74754700D01*
X209939247Y-74754102D01*
X209931906Y-74753524D01*
X209924565Y-74752966D01*
X209917219Y-74752427D01*
X209909872Y-74751909D01*
X209902519Y-74751410D01*
X209895166Y-74750932D01*
X209887808Y-74750473D01*
X209880449Y-74750034D01*
X209873085Y-74749614D01*
X209865721Y-74749215D01*
X209858351Y-74748836D01*
X209850981Y-74748476D01*
X209843606Y-74748137D01*
X209836230Y-74747817D01*
X209828850Y-74747517D01*
X209821469Y-74747238D01*
X209814083Y-74746978D01*
X209806697Y-74746738D01*
X209799306Y-74746518D01*
X209791915Y-74746318D01*
X209784519Y-74746138D01*
X209777123Y-74745977D01*
X209769722Y-74745837D01*
X209762320Y-74745717D01*
X209754915Y-74745617D01*
X209747509Y-74745537D01*
X209740098Y-74745476D01*
X209725306Y-74745416D01*
D10*
X133701212Y-120598655D02*
G75*
G02*
X134701145Y-121598655I-12J-999945D01*
G01*
D11*
X157579996Y-57712520D02*
X157579945Y-57698233D01*
X157579815Y-57683955D01*
X157579604Y-57669686D01*
X157579314Y-57655428D01*
X157578944Y-57641180D01*
X157578495Y-57626942D01*
X157577966Y-57612715D01*
X157577357Y-57598498D01*
X157576668Y-57584293D01*
X157575901Y-57570099D01*
X157575054Y-57555916D01*
X157574127Y-57541745D01*
X157573121Y-57527586D01*
X157572036Y-57513439D01*
X157570872Y-57499304D01*
X157569628Y-57485182D01*
X157568305Y-57471073D01*
X157566904Y-57456978D01*
X157565423Y-57442895D01*
X157563863Y-57428827D01*
X157562225Y-57414772D01*
X157560508Y-57400731D01*
X157558712Y-57386705D01*
X157556837Y-57372693D01*
X157554883Y-57358697D01*
X157552851Y-57344715D01*
X157550741Y-57330749D01*
X157548552Y-57316799D01*
X157546285Y-57302865D01*
X157543939Y-57288947D01*
X157541515Y-57275046D01*
X157539013Y-57261161D01*
X157536432Y-57247294D01*
X157533774Y-57233444D01*
X157531038Y-57219612D01*
X157528223Y-57205798D01*
X157525331Y-57192002D01*
X157522361Y-57178225D01*
X157519314Y-57164467D01*
X157516188Y-57150728D01*
X157512986Y-57137008D01*
X157509705Y-57123308D01*
X157506348Y-57109628D01*
X157502913Y-57095969D01*
X157499401Y-57082331D01*
X157495811Y-57068713D01*
X157492145Y-57055117D01*
X157488402Y-57041543D01*
X157484582Y-57027990D01*
X157480685Y-57014460D01*
X157476711Y-57000953D01*
X157472661Y-56987469D01*
X157468534Y-56974007D01*
X157464331Y-56960570D01*
X157460052Y-56947157D01*
X157455697Y-56933768D01*
X157451265Y-56920403D01*
X157446758Y-56907064D01*
X157442175Y-56893750D01*
X157437516Y-56880462D01*
X157432781Y-56867199D01*
X157427971Y-56853964D01*
X157423086Y-56840755D01*
X157418126Y-56827573D01*
X157413090Y-56814418D01*
X157407980Y-56801292D01*
X157402794Y-56788194D01*
X157397534Y-56775124D01*
X157392200Y-56762083D01*
X157386791Y-56749071D01*
X157381307Y-56736090D01*
X157375750Y-56723138D01*
X157370119Y-56710216D01*
X157364414Y-56697326D01*
X157358635Y-56684466D01*
X157352783Y-56671638D01*
X157346857Y-56658842D01*
X157340858Y-56646079D01*
X157334787Y-56633348D01*
X157328642Y-56620650D01*
X157322425Y-56607985D01*
X157316135Y-56595355D01*
X157309773Y-56582758D01*
X157303339Y-56570197D01*
X157296833Y-56557670D01*
X157290256Y-56545178D01*
X157283607Y-56532723D01*
X157276886Y-56520303D01*
X157270094Y-56507921D01*
X157263232Y-56495575D01*
X157256298Y-56483266D01*
X157249295Y-56470996D01*
X157242220Y-56458763D01*
X157235076Y-56446569D01*
X157227862Y-56434414D01*
X157220578Y-56422298D01*
X157213225Y-56410222D01*
X157205803Y-56398186D01*
X157198312Y-56386191D01*
X157190752Y-56374237D01*
X157183123Y-56362324D01*
X157175427Y-56350453D01*
X157167662Y-56338624D01*
X157159830Y-56326837D01*
X157151930Y-56315094D01*
X157143963Y-56303394D01*
X157135929Y-56291737D01*
X157127828Y-56280125D01*
X157119661Y-56268557D01*
X157111427Y-56257035D01*
X157103128Y-56245557D01*
X157094763Y-56234126D01*
X157086333Y-56222740D01*
X157077838Y-56211402D01*
X157069278Y-56200110D01*
X157060654Y-56188865D01*
X157051965Y-56177668D01*
X157043213Y-56166520D01*
X157034396Y-56155420D01*
X157025517Y-56144369D01*
X157016575Y-56133367D01*
X157007570Y-56122415D01*
X156998502Y-56111513D01*
X156989373Y-56100661D01*
X156980182Y-56089861D01*
X156970930Y-56079111D01*
X156961616Y-56068414D01*
X156952242Y-56057768D01*
X156942807Y-56047175D01*
X156933312Y-56036634D01*
X156923757Y-56026147D01*
X156914143Y-56015714D01*
X156904470Y-56005334D01*
X156894739Y-55995009D01*
X156884948Y-55984738D01*
X156875100Y-55974522D01*
X156865194Y-55964362D01*
X156855231Y-55954258D01*
X156847741Y-55946736D01*
D10*
X155564376Y-58143738D02*
G75*
G02*
X152564376Y-58143738I-1500000J0D01*
G01*
X152564376Y-58143738D02*
G75*
G02*
X155564376Y-58143738I1500000J0D01*
G01*
D12*
X82425755Y-139947982D02*
X146159505Y-139947982D01*
X155074034Y-55193466D02*
X154368478Y-55187954D01*
D10*
X84455181Y-58137300D02*
G75*
G02*
X81255181Y-58137300I-1600000J0D01*
G01*
X81255181Y-58137300D02*
G75*
G02*
X84455181Y-58137300I1600000J0D01*
G01*
D12*
X153591265Y-55190882D02*
X82427650Y-55202768D01*
D11*
X157593777Y-74265170D02*
X157593817Y-74271603D01*
X157593937Y-74278026D01*
X157594136Y-74284439D01*
X157594415Y-74290842D01*
X157594773Y-74297233D01*
X157595211Y-74303613D01*
X157595728Y-74309980D01*
X157596323Y-74316335D01*
X157596998Y-74322676D01*
X157597752Y-74329004D01*
X157598584Y-74335317D01*
X157599495Y-74341615D01*
X157600484Y-74347898D01*
X157601552Y-74354164D01*
X157602698Y-74360414D01*
X157603922Y-74366646D01*
X157605223Y-74372860D01*
X157606602Y-74379055D01*
X157608059Y-74385230D01*
X157609593Y-74391386D01*
X157611204Y-74397520D01*
X157612892Y-74403633D01*
X157614657Y-74409724D01*
X157616498Y-74415792D01*
X157618416Y-74421836D01*
X157620409Y-74427855D01*
X157622479Y-74433849D01*
X157624624Y-74439817D01*
X157626844Y-74445759D01*
X157629139Y-74451672D01*
X157631509Y-74457558D01*
X157633953Y-74463414D01*
X157636471Y-74469239D01*
X157639063Y-74475034D01*
X157641728Y-74480798D01*
X157644466Y-74486528D01*
X157647277Y-74492225D01*
X157650160Y-74497888D01*
X157653114Y-74503516D01*
X157656141Y-74509108D01*
X157659238Y-74514662D01*
X157662405Y-74520179D01*
X157665642Y-74525658D01*
X157668949Y-74531096D01*
X157672325Y-74536495D01*
X157675769Y-74541851D01*
X157679281Y-74547166D01*
X157682861Y-74552438D01*
X157686507Y-74557665D01*
X157690220Y-74562848D01*
X157693998Y-74567985D01*
X157697841Y-74573075D01*
X157701748Y-74578118D01*
X157705719Y-74583112D01*
X157709752Y-74588057D01*
X157713849Y-74592951D01*
X157718006Y-74597795D01*
X157722225Y-74602587D01*
X157726503Y-74607326D01*
X157730842Y-74612012D01*
X157735238Y-74616643D01*
X157739693Y-74621219D01*
X157742605Y-74624149D01*
X211551896Y-139106862D02*
X211557367Y-139101377D01*
X211562824Y-139095877D01*
X211568267Y-139090364D01*
X211573695Y-139084836D01*
X211579109Y-139079295D01*
X211584509Y-139073740D01*
X211589895Y-139068170D01*
X211595266Y-139062587D01*
X211600623Y-139056990D01*
X211605965Y-139051379D01*
X211611292Y-139045755D01*
X211616605Y-139040116D01*
X211621904Y-139034464D01*
X211627188Y-139028799D01*
X211632457Y-139023120D01*
X211637711Y-139017427D01*
X211642951Y-139011721D01*
X211648176Y-139006001D01*
X211653386Y-139000268D01*
X211658581Y-138994521D01*
X211663761Y-138988761D01*
X211668927Y-138982988D01*
X211674077Y-138977202D01*
X211679213Y-138971402D01*
X211684333Y-138965590D01*
X211689438Y-138959764D01*
X211694528Y-138953925D01*
X211699603Y-138948072D01*
X211704663Y-138942208D01*
X211709707Y-138936329D01*
X211714736Y-138930439D01*
X211719751Y-138924535D01*
X211724749Y-138918618D01*
X211729732Y-138912689D01*
X211734700Y-138906747D01*
X211739652Y-138900791D01*
X211744589Y-138894824D01*
X211749511Y-138888844D01*
X211754416Y-138882851D01*
X211759307Y-138876846D01*
X211764181Y-138870828D01*
X211769040Y-138864798D01*
X211773883Y-138858755D01*
X211778711Y-138852700D01*
X211783522Y-138846633D01*
X211788319Y-138840553D01*
X211793099Y-138834461D01*
X211797863Y-138828357D01*
X211802611Y-138822241D01*
X211807344Y-138816112D01*
X211812060Y-138809972D01*
X211816761Y-138803820D01*
X211821445Y-138797656D01*
X211826114Y-138791479D01*
X211830766Y-138785291D01*
X211835402Y-138779091D01*
X211840022Y-138772879D01*
X211844626Y-138766656D01*
X211849214Y-138760421D01*
X211853785Y-138754173D01*
X211858340Y-138747915D01*
X211862879Y-138741645D01*
X211867401Y-138735363D01*
X211871908Y-138729070D01*
X211876397Y-138722766D01*
X211880870Y-138716449D01*
X211885327Y-138710122D01*
X211889767Y-138703783D01*
X211894191Y-138697434D01*
X211898598Y-138691072D01*
X211902989Y-138684700D01*
X211907363Y-138678316D01*
X211911720Y-138671922D01*
X211916061Y-138665516D01*
X211920384Y-138659100D01*
X211924692Y-138652671D01*
X211928982Y-138646233D01*
X211933256Y-138639784D01*
X211937512Y-138633324D01*
X211941753Y-138626852D01*
X211945975Y-138620371D01*
X211950182Y-138613878D01*
X211954371Y-138607375D01*
X211958543Y-138600861D01*
X211962698Y-138594337D01*
X211966837Y-138587802D01*
X211970958Y-138581257D01*
X211975062Y-138574701D01*
X211979149Y-138568135D01*
X211983219Y-138561558D01*
X211987272Y-138554972D01*
X211991308Y-138548375D01*
X211995326Y-138541768D01*
X211999327Y-138535150D01*
X212003311Y-138528523D01*
X212007277Y-138521885D01*
X212011226Y-138515238D01*
X212015159Y-138508580D01*
X212019073Y-138501913D01*
X212022970Y-138495235D01*
X212026850Y-138488548D01*
X212030713Y-138481850D01*
X212034557Y-138475144D01*
X212038385Y-138468427D01*
X212042194Y-138461701D01*
X212045987Y-138454964D01*
X212049762Y-138448220D01*
X212053519Y-138441464D01*
X212057258Y-138434700D01*
X212060981Y-138427925D01*
X212064685Y-138421142D01*
X212068372Y-138414349D01*
X212072040Y-138407547D01*
X212075692Y-138400735D01*
X212079325Y-138393915D01*
X212082941Y-138387085D01*
X212086539Y-138380246D01*
X212090119Y-138373397D01*
X212093681Y-138366541D01*
X212097226Y-138359674D01*
X212100752Y-138352799D01*
X212104261Y-138345914D01*
X212107751Y-138339022D01*
X212111224Y-138332119D01*
X212114679Y-138325209D01*
X212118116Y-138318289D01*
X212121534Y-138311361D01*
X212124936Y-138304424D01*
X212128318Y-138297479D01*
X212131683Y-138290524D01*
X212135029Y-138283562D01*
X212138358Y-138276590D01*
X212141668Y-138269611D01*
X212144961Y-138262622D01*
X212148234Y-138255626D01*
X212151490Y-138248620D01*
X212154728Y-138241608D01*
X212157947Y-138234586D01*
X212161148Y-138227557D01*
X212164331Y-138220518D01*
X212167496Y-138213473D01*
X212170642Y-138206418D01*
X212173770Y-138199357D01*
X212176880Y-138192286D01*
X212179971Y-138185209D01*
X212183044Y-138178122D01*
X212186098Y-138171029D01*
X212189135Y-138163927D01*
X212192152Y-138156818D01*
X212195152Y-138149700D01*
X212198132Y-138142576D01*
X212201095Y-138135442D01*
X212204038Y-138128303D01*
X212206964Y-138121154D01*
X212209870Y-138113999D01*
X212212759Y-138106836D01*
X212215628Y-138099666D01*
X212218480Y-138092487D01*
X212221312Y-138085303D01*
X212224126Y-138078110D01*
X212226921Y-138070911D01*
X212229698Y-138063703D01*
X212232455Y-138056489D01*
X212235195Y-138049267D01*
X212237915Y-138042039D01*
X212240617Y-138034802D01*
X212243300Y-138027560D01*
X212245965Y-138020310D01*
X212248610Y-138013054D01*
X212251237Y-138005789D01*
X212253845Y-137998519D01*
X212256435Y-137991241D01*
X212259005Y-137983957D01*
X212261557Y-137976665D01*
X212264089Y-137969368D01*
X212266604Y-137962062D01*
X212269098Y-137954752D01*
X212271575Y-137947433D01*
X212274032Y-137940109D01*
X212276471Y-137932777D01*
X212278890Y-137925441D01*
X212281291Y-137918095D01*
X212283672Y-137910746D01*
X212286035Y-137903388D01*
X212288378Y-137896026D01*
X212290703Y-137888655D01*
X212293009Y-137881280D01*
X212295296Y-137873897D01*
X212297563Y-137866509D01*
X212299812Y-137859114D01*
X212302041Y-137851714D01*
X212304252Y-137844306D01*
X212306443Y-137836894D01*
X212308616Y-137829474D01*
X212310769Y-137822051D01*
X212312903Y-137814619D01*
X212315018Y-137807183D01*
X212317114Y-137799739D01*
X212319191Y-137792292D01*
X212321248Y-137784836D01*
X212323287Y-137777377D01*
X212325306Y-137769911D01*
X212327306Y-137762440D01*
X212329287Y-137754962D01*
X212331248Y-137747480D01*
X212333191Y-137739991D01*
X212335114Y-137732498D01*
X212337018Y-137724997D01*
X212338902Y-137717494D01*
X212340768Y-137709982D01*
X212342614Y-137702467D01*
X212344441Y-137694945D01*
X212346248Y-137687420D01*
X212348037Y-137679887D01*
X212349806Y-137672351D01*
X212351555Y-137664807D01*
X212353285Y-137657261D01*
X212354997Y-137649707D01*
X212356688Y-137642150D01*
X212358360Y-137634586D01*
X212360013Y-137627019D01*
X212361647Y-137619445D01*
X212363260Y-137611868D01*
X212364855Y-137604284D01*
X212366430Y-137596697D01*
X212367986Y-137589103D01*
X212369522Y-137581507D01*
X212371040Y-137573903D01*
X212372537Y-137566297D01*
X212374015Y-137558683D01*
X212375473Y-137551068D01*
X212376913Y-137543445D01*
X212378332Y-137535820D01*
X212379732Y-137528188D01*
X212381113Y-137520554D01*
X212382474Y-137512912D01*
X212383815Y-137505269D01*
X212385138Y-137497619D01*
X212386440Y-137489966D01*
X212387723Y-137482307D01*
X212388986Y-137474646D01*
X212390230Y-137466978D01*
X212391454Y-137459308D01*
X212392659Y-137451631D01*
X212393188Y-137448221D01*
X79925822Y-137445120D02*
X79925855Y-137459413D01*
X79925968Y-137473698D01*
X79926160Y-137487972D01*
X79926433Y-137502237D01*
X79926785Y-137516492D01*
X79927216Y-137530737D01*
X79927728Y-137544972D01*
X79928319Y-137559196D01*
X79928990Y-137573409D01*
X79929740Y-137587611D01*
X79930569Y-137601802D01*
X79931478Y-137615981D01*
X79932466Y-137630149D01*
X79933534Y-137644305D01*
X79934681Y-137658448D01*
X79935907Y-137672579D01*
X79937212Y-137686697D01*
X79938596Y-137700803D01*
X79940059Y-137714895D01*
X79941601Y-137728973D01*
X79943222Y-137743038D01*
X79944922Y-137757089D01*
X79946701Y-137771126D01*
X79948558Y-137785148D01*
X79950494Y-137799155D01*
X79952509Y-137813148D01*
X79954602Y-137827125D01*
X79956774Y-137841086D01*
X79959024Y-137855032D01*
X79961353Y-137868961D01*
X79963760Y-137882874D01*
X79966245Y-137896770D01*
X79968808Y-137910649D01*
X79971449Y-137924511D01*
X79974169Y-137938356D01*
X79976966Y-137952182D01*
X79979841Y-137965990D01*
X79982794Y-137979780D01*
X79985825Y-137993551D01*
X79988933Y-138007303D01*
X79992119Y-138021036D01*
X79995383Y-138034748D01*
X79998723Y-138048441D01*
X80002142Y-138062114D01*
X80005637Y-138075766D01*
X80009210Y-138089397D01*
X80012859Y-138103006D01*
X80016586Y-138116594D01*
X80020389Y-138130161D01*
X80024270Y-138143705D01*
X80028227Y-138157226D01*
X80032260Y-138170724D01*
X80036370Y-138184199D01*
X80040557Y-138197651D01*
X80044820Y-138211079D01*
X80049159Y-138224482D01*
X80053574Y-138237861D01*
X80058064Y-138251214D01*
X80062631Y-138264543D01*
X80067274Y-138277846D01*
X80071992Y-138291122D01*
X80076785Y-138304373D01*
X80081654Y-138317596D01*
X80086599Y-138330793D01*
X80091618Y-138343962D01*
X80096712Y-138357104D01*
X80101881Y-138370217D01*
X80107125Y-138383301D01*
X80112443Y-138396357D01*
X80117836Y-138409384D01*
X80123303Y-138422380D01*
X80128844Y-138435347D01*
X80134459Y-138448283D01*
X80140148Y-138461189D01*
X80145910Y-138474063D01*
X80151746Y-138486906D01*
X80157656Y-138499717D01*
X80163638Y-138512496D01*
X80169694Y-138525242D01*
X80175822Y-138537955D01*
X80182023Y-138550634D01*
X80188296Y-138563280D01*
X80194642Y-138575891D01*
X80201060Y-138588468D01*
X80207549Y-138601010D01*
X80214111Y-138613516D01*
X80220744Y-138625986D01*
X80227448Y-138638421D01*
X80234223Y-138650818D01*
X80241069Y-138663179D01*
X80247986Y-138675502D01*
X80254974Y-138687788D01*
X80262031Y-138700035D01*
X80269159Y-138712244D01*
X80276357Y-138724413D01*
X80283624Y-138736544D01*
X80290961Y-138748634D01*
X80298366Y-138760684D01*
X80305841Y-138772694D01*
X80313384Y-138784663D01*
X80320996Y-138796590D01*
X80328676Y-138808475D01*
X80336424Y-138820319D01*
X80344239Y-138832119D01*
X80352122Y-138843877D01*
X80360073Y-138855591D01*
X80368090Y-138867261D01*
X80376173Y-138878887D01*
X80384324Y-138890469D01*
X80392540Y-138902005D01*
X80400822Y-138913496D01*
X80409170Y-138924941D01*
X80417582Y-138936340D01*
X80426060Y-138947693D01*
X80434603Y-138958998D01*
X80443210Y-138970256D01*
X80451881Y-138981465D01*
X80460616Y-138992627D01*
X80469414Y-139003740D01*
X80478276Y-139014804D01*
X80487200Y-139025819D01*
X80496188Y-139036784D01*
X80505237Y-139047699D01*
X80514348Y-139058563D01*
X80523521Y-139069376D01*
X80532756Y-139080137D01*
X80542051Y-139090847D01*
X80551407Y-139101505D01*
X80560823Y-139112111D01*
X80570300Y-139122663D01*
X80579836Y-139133162D01*
X80589431Y-139143608D01*
X80599085Y-139153999D01*
X80608798Y-139164336D01*
X80618570Y-139174618D01*
X80628399Y-139184846D01*
X80638286Y-139195017D01*
X80648230Y-139205133D01*
X80657388Y-139214349D01*
X157742605Y-74624149D02*
X157744868Y-74626402D01*
X157747145Y-74628641D01*
X157749435Y-74630865D01*
X157751740Y-74633074D01*
X157754058Y-74635269D01*
X157756389Y-74637449D01*
X157758734Y-74639614D01*
X157761092Y-74641765D01*
X157763463Y-74643900D01*
X157765847Y-74646020D01*
X157768244Y-74648125D01*
X157770655Y-74650214D01*
X157773078Y-74652288D01*
X157775514Y-74654347D01*
X157777962Y-74656390D01*
X157780423Y-74658418D01*
X157782896Y-74660429D01*
X157785382Y-74662426D01*
X157787879Y-74664405D01*
X157790389Y-74666370D01*
X157792910Y-74668318D01*
X157795444Y-74670250D01*
X157797989Y-74672166D01*
X157800547Y-74674066D01*
X157803115Y-74675949D01*
X157805696Y-74677816D01*
X157808287Y-74679666D01*
X157810890Y-74681500D01*
X157813504Y-74683317D01*
X157816129Y-74685118D01*
X157818765Y-74686901D01*
X157821412Y-74688669D01*
X157824069Y-74690419D01*
X157826738Y-74692152D01*
X157829417Y-74693868D01*
X157832107Y-74695567D01*
X157834806Y-74697249D01*
X157837516Y-74698914D01*
X157840236Y-74700561D01*
X157842967Y-74702192D01*
X157845706Y-74703804D01*
X157848457Y-74705400D01*
X157851216Y-74706978D01*
X157853986Y-74708538D01*
X157856764Y-74710081D01*
X157859553Y-74711606D01*
X157862350Y-74713113D01*
X157865157Y-74714603D01*
X157867973Y-74716075D01*
X157870799Y-74717529D01*
X157873632Y-74718965D01*
X157876476Y-74720383D01*
X157879327Y-74721783D01*
X157882188Y-74723165D01*
X157885056Y-74724529D01*
X157887934Y-74725875D01*
X157890819Y-74727202D01*
X157893714Y-74728512D01*
X157896615Y-74729803D01*
X157899526Y-74731076D01*
X157902443Y-74732330D01*
X157905370Y-74733566D01*
X157908303Y-74734783D01*
X157911246Y-74735983D01*
X157914194Y-74737163D01*
X157917152Y-74738325D01*
X157920115Y-74739468D01*
X157923087Y-74740593D01*
X157926065Y-74741699D01*
X157929052Y-74742787D01*
X157932044Y-74743855D01*
X157935045Y-74744905D01*
X157938051Y-74745936D01*
X157941065Y-74746949D01*
X157944085Y-74747942D01*
X157947113Y-74748916D01*
X157950145Y-74749872D01*
X157953186Y-74750808D01*
X157956231Y-74751726D01*
X157959285Y-74752624D01*
X157962343Y-74753504D01*
X157965409Y-74754364D01*
X157968479Y-74755205D01*
X157971557Y-74756028D01*
X157974639Y-74756830D01*
X157977729Y-74757614D01*
X157980822Y-74758379D01*
X157983923Y-74759124D01*
X157987028Y-74759850D01*
X157990140Y-74760557D01*
X157993255Y-74761245D01*
X157996378Y-74761913D01*
X157999504Y-74762561D01*
X158002638Y-74763191D01*
X158005774Y-74763801D01*
X158008918Y-74764392D01*
X158012064Y-74764963D01*
X158015217Y-74765514D01*
X158018373Y-74766046D01*
X158021536Y-74766559D01*
X158024702Y-74767052D01*
X158027874Y-74767526D01*
X158031049Y-74767980D01*
X158034230Y-74768414D01*
X158037414Y-74768829D01*
X158040604Y-74769224D01*
X158043796Y-74769600D01*
X158046995Y-74769956D01*
X158050196Y-74770292D01*
X158053403Y-74770608D01*
X158056611Y-74770905D01*
X158059826Y-74771182D01*
X158063043Y-74771439D01*
X158066265Y-74771676D01*
X158069490Y-74771894D01*
X158072720Y-74772091D01*
X158075951Y-74772269D01*
X158079189Y-74772427D01*
X158082428Y-74772565D01*
X158085672Y-74772683D01*
X158088918Y-74772782D01*
X158092169Y-74772860D01*
X158095422Y-74772918D01*
X158098679Y-74772957D01*
X158103306Y-74772977D01*
X156847741Y-55946736D02*
X156842609Y-55941622D01*
X156837462Y-55936521D01*
X156832300Y-55931434D01*
X156827123Y-55926360D01*
X156821931Y-55921299D01*
X156816724Y-55916252D01*
X156811503Y-55911218D01*
X156806266Y-55906198D01*
X156801015Y-55901191D01*
X156795749Y-55896198D01*
X156790469Y-55891220D01*
X156785174Y-55886254D01*
X156779865Y-55881303D01*
X156774542Y-55876366D01*
X156769204Y-55871443D01*
X156763852Y-55866533D01*
X156758487Y-55861639D01*
X156753106Y-55856758D01*
X156747713Y-55851892D01*
X156742304Y-55847039D01*
X156736883Y-55842202D01*
X156731447Y-55837379D01*
X156725998Y-55832571D01*
X156720535Y-55827777D01*
X156715059Y-55822998D01*
X156709569Y-55818234D01*
X156704066Y-55813485D01*
X156698549Y-55808750D01*
X156693019Y-55804031D01*
X156687475Y-55799326D01*
X156681920Y-55794637D01*
X156676350Y-55789963D01*
X156670768Y-55785304D01*
X156665172Y-55780660D01*
X156659564Y-55776032D01*
X156653943Y-55771419D01*
X156648310Y-55766822D01*
X156642663Y-55762239D01*
X156637005Y-55757673D01*
X156631333Y-55753122D01*
X156625650Y-55748587D01*
X156619953Y-55744067D01*
X156614245Y-55739564D01*
X156608524Y-55735076D01*
X156602792Y-55730605D01*
X156597047Y-55726148D01*
X156591291Y-55721709D01*
X156585521Y-55717285D01*
X156579741Y-55712878D01*
X156573948Y-55708486D01*
X156568145Y-55704111D01*
X156562329Y-55699752D01*
X156556502Y-55695410D01*
X156550663Y-55691083D01*
X156544814Y-55686774D01*
X156538952Y-55682480D01*
X156533080Y-55678204D01*
X156527195Y-55673944D01*
X156521301Y-55669701D01*
X156515394Y-55665474D01*
X156509478Y-55661264D01*
X156503549Y-55657071D01*
X156497612Y-55652895D01*
X156491661Y-55648735D01*
X156485702Y-55644593D01*
X156479730Y-55640467D01*
X156473750Y-55636360D01*
X156467757Y-55632268D01*
X156461756Y-55628194D01*
X156455743Y-55624137D01*
X156449721Y-55620098D01*
X156443687Y-55616075D01*
X156437645Y-55612070D01*
X156431591Y-55608082D01*
X156425529Y-55604112D01*
X156419455Y-55600159D01*
X156413374Y-55596224D01*
X156407280Y-55592305D01*
X156401179Y-55588406D01*
X156395066Y-55584522D01*
X156388946Y-55580658D01*
X156382815Y-55576810D01*
X156376676Y-55572981D01*
X156370525Y-55569168D01*
X156364368Y-55565375D01*
X156358199Y-55561598D01*
X156352023Y-55557841D01*
X156345836Y-55554100D01*
X156339642Y-55550378D01*
X156333437Y-55546673D01*
X156327226Y-55542987D01*
X156321003Y-55539318D01*
X156314774Y-55535669D01*
X156308534Y-55532036D01*
X156302288Y-55528423D01*
X156296031Y-55524827D01*
X156289769Y-55521250D01*
X156283495Y-55517690D01*
X156277215Y-55514150D01*
X156270925Y-55510627D01*
X156264629Y-55507124D01*
X156258323Y-55503638D01*
X156252011Y-55500171D01*
X156245689Y-55496722D01*
X156239361Y-55493293D01*
X156233023Y-55489880D01*
X156226680Y-55486488D01*
X156220327Y-55483113D01*
X156213968Y-55479758D01*
X156207600Y-55476420D01*
X156201227Y-55473102D01*
X156194843Y-55469802D01*
X156188455Y-55466522D01*
X156182057Y-55463259D01*
X156175655Y-55460016D01*
X156169242Y-55456791D01*
X156162826Y-55453586D01*
X156156399Y-55450398D01*
X156149969Y-55447231D01*
X156143529Y-55444082D01*
X156137085Y-55440952D01*
X156130631Y-55437841D01*
X156124173Y-55434749D01*
X156117706Y-55431676D01*
X156111236Y-55428622D01*
X156104755Y-55425587D01*
X156098272Y-55422572D01*
X156091779Y-55419574D01*
X156085283Y-55416598D01*
X156078777Y-55413638D01*
X156072269Y-55410700D01*
X156065751Y-55407779D01*
X156059231Y-55404879D01*
X156052701Y-55401997D01*
X156046168Y-55399136D01*
X156039626Y-55396292D01*
X156033082Y-55393469D01*
X156026529Y-55390664D01*
X156019974Y-55387880D01*
X156013409Y-55385114D01*
X156006842Y-55382368D01*
X156000267Y-55379641D01*
X155993689Y-55376934D01*
X155987103Y-55374245D01*
X155980514Y-55371577D01*
X155973917Y-55368928D01*
X155967318Y-55366299D01*
X155960711Y-55363688D01*
X155954102Y-55361098D01*
X155947484Y-55358526D01*
X155940865Y-55355976D01*
X155934238Y-55353443D01*
X155927609Y-55350931D01*
X155920972Y-55348438D01*
X155914333Y-55345965D01*
X155907687Y-55343511D01*
X155901039Y-55341078D01*
X155894383Y-55338663D01*
X155887726Y-55336269D01*
X155881061Y-55333893D01*
X155874396Y-55331538D01*
X155867722Y-55329202D01*
X155861048Y-55326887D01*
X155854365Y-55324590D01*
X155847682Y-55322314D01*
X155840991Y-55320057D01*
X155834300Y-55317820D01*
X155827601Y-55315602D01*
X155820902Y-55313405D01*
X155814195Y-55311227D01*
X155807488Y-55309070D01*
X155800774Y-55306931D01*
X155794059Y-55304813D01*
X155787337Y-55302714D01*
X155780615Y-55300636D01*
X155773885Y-55298576D01*
X155767156Y-55296538D01*
X155760419Y-55294518D01*
X155753683Y-55292519D01*
X155746939Y-55290539D01*
X155740196Y-55288580D01*
X155733445Y-55286640D01*
X155726695Y-55284720D01*
X155719938Y-55282820D01*
X155713182Y-55280940D01*
X155706418Y-55279079D01*
X155699656Y-55277240D01*
X155692886Y-55275419D01*
X155686117Y-55273619D01*
X155679342Y-55271837D01*
X155672567Y-55270077D01*
X155665785Y-55268336D01*
X155659005Y-55266616D01*
X155652218Y-55264914D01*
X155645432Y-55263234D01*
X155638639Y-55261573D01*
X155631848Y-55259932D01*
X155625050Y-55258311D01*
X155618253Y-55256710D01*
X155611450Y-55255128D01*
X155604648Y-55253568D01*
X155597840Y-55252026D01*
X155591033Y-55250505D01*
X155584220Y-55249004D01*
X155577409Y-55247523D01*
X155570592Y-55246061D01*
X155563776Y-55244621D01*
X155556954Y-55243199D01*
X155550133Y-55241798D01*
X155543307Y-55240417D01*
X155536483Y-55239056D01*
X155529652Y-55237714D01*
X155522823Y-55236393D01*
X155515989Y-55235092D01*
X155509156Y-55233811D01*
X155502318Y-55232549D01*
X155495482Y-55231308D01*
X155488640Y-55230087D01*
X155481800Y-55228886D01*
X155474954Y-55227705D01*
X155468111Y-55226544D01*
X155461262Y-55225403D01*
X155454415Y-55224282D01*
X155447563Y-55223180D01*
X155440713Y-55222100D01*
X155433857Y-55221039D01*
X155427004Y-55219998D01*
X155420146Y-55218977D01*
X155413290Y-55217976D01*
X155406429Y-55216995D01*
X155399570Y-55216034D01*
X155392706Y-55215093D01*
X155385845Y-55214173D01*
X155378978Y-55213272D01*
X155372114Y-55212391D01*
X155365245Y-55211530D01*
X155358379Y-55210690D01*
X155351508Y-55209869D01*
X155344639Y-55209069D01*
X155337766Y-55208288D01*
X155330895Y-55207528D01*
X155324020Y-55206787D01*
X155317147Y-55206067D01*
X155310269Y-55205366D01*
X155303395Y-55204686D01*
X155296516Y-55204025D01*
X155289639Y-55203385D01*
X155282758Y-55202765D01*
X155275880Y-55202165D01*
X155268998Y-55201584D01*
X155262118Y-55201024D01*
X155255234Y-55200484D01*
X155248353Y-55199964D01*
X155241468Y-55199463D01*
X155234586Y-55198983D01*
X155227699Y-55198523D01*
X155220816Y-55198083D01*
X155213928Y-55197663D01*
X155207043Y-55197263D01*
X155200154Y-55196883D01*
X155193269Y-55196523D01*
X155186379Y-55196183D01*
X155179493Y-55195864D01*
X155172602Y-55195564D01*
X155165715Y-55195284D01*
X155158823Y-55195024D01*
X155151936Y-55194784D01*
X155145044Y-55194564D01*
X155138155Y-55194365D01*
X155131263Y-55194185D01*
X155124374Y-55194025D01*
X155117481Y-55193886D01*
X155110591Y-55193766D01*
X155103698Y-55193666D01*
X155096808Y-55193587D01*
X155089915Y-55193527D01*
X155083025Y-55193488D01*
X155076131Y-55193468D01*
X155074034Y-55193466D01*
D10*
X108493236Y-121598655D02*
G75*
G02*
X109493236Y-120598736I999864J55D01*
G01*
X134701212Y-123657802D02*
G75*
G02*
X133701212Y-124657812I-1000012J2D01*
G01*
D12*
X212393188Y-137448221D02*
X212411447Y-77439136D01*
D11*
X209893082Y-139947982D02*
X209908430Y-139945571D01*
X209923762Y-139943081D01*
X209939075Y-139940514D01*
X209954371Y-139937868D01*
X209969648Y-139935145D01*
X209984908Y-139932343D01*
X210000148Y-139929464D01*
X210015370Y-139926507D01*
X210030573Y-139923472D01*
X210045756Y-139920359D01*
X210060919Y-139917169D01*
X210076063Y-139913901D01*
X210091186Y-139910556D01*
X210106289Y-139907134D01*
X210121371Y-139903634D01*
X210136432Y-139900058D01*
X210151472Y-139896404D01*
X210166490Y-139892673D01*
X210181486Y-139888865D01*
X210196460Y-139884980D01*
X210211412Y-139881019D01*
X210226340Y-139876980D01*
X210241246Y-139872866D01*
X210256129Y-139868674D01*
X210270988Y-139864407D01*
X210285823Y-139860062D01*
X210300633Y-139855642D01*
X210315420Y-139851146D01*
X210330181Y-139846573D01*
X210344917Y-139841925D01*
X210359628Y-139837201D01*
X210374314Y-139832401D01*
X210388973Y-139827526D01*
X210403606Y-139822575D01*
X210418212Y-139817548D01*
X210432791Y-139812447D01*
X210447343Y-139807270D01*
X210461868Y-139802018D01*
X210476364Y-139796691D01*
X210490833Y-139791290D01*
X210505273Y-139785813D01*
X210519684Y-139780262D01*
X210534065Y-139774637D01*
X210548418Y-139768937D01*
X210562740Y-139763163D01*
X210577032Y-139757315D01*
X210591294Y-139751394D01*
X210605525Y-139745398D01*
X210619725Y-139739329D01*
X210633894Y-139733186D01*
X210648030Y-139726970D01*
X210662135Y-139720680D01*
X210676207Y-139714318D01*
X210690246Y-139707883D01*
X210704252Y-139701374D01*
X210718225Y-139694794D01*
X210732164Y-139688140D01*
X210746068Y-139681415D01*
X210759938Y-139674617D01*
X210773773Y-139667748D01*
X210787573Y-139660806D01*
X210801338Y-139653793D01*
X210815067Y-139646709D01*
X210828759Y-139639553D01*
X210842415Y-139632326D01*
X210856034Y-139625028D01*
X210869615Y-139617659D01*
X210883159Y-139610220D01*
X210896665Y-139602711D01*
X210910133Y-139595131D01*
X210923562Y-139587481D01*
X210936952Y-139579761D01*
X210950302Y-139571972D01*
X210963613Y-139564114D01*
X210976884Y-139556186D01*
X210990115Y-139548189D01*
X211003304Y-139540123D01*
X211016453Y-139531989D01*
X211029560Y-139523786D01*
X211042625Y-139515516D01*
X211055648Y-139507177D01*
X211068628Y-139498771D01*
X211081565Y-139490297D01*
X211094459Y-139481756D01*
X211107310Y-139473147D01*
X211120117Y-139464472D01*
X211132879Y-139455731D01*
X211145597Y-139446923D01*
X211158269Y-139438049D01*
X211170896Y-139429109D01*
X211183478Y-139420103D01*
X211196013Y-139411032D01*
X211208502Y-139401896D01*
X211220944Y-139392695D01*
X211233339Y-139383430D01*
X211245687Y-139374100D01*
X211257986Y-139364706D01*
X211270238Y-139355248D01*
X211282441Y-139345726D01*
X211294595Y-139336142D01*
X211306700Y-139326494D01*
X211318755Y-139316783D01*
X211330761Y-139307010D01*
X211342716Y-139297175D01*
X211354620Y-139287278D01*
X211366474Y-139277319D01*
X211378276Y-139267298D01*
X211390027Y-139257217D01*
X211401726Y-139247075D01*
X211413372Y-139236872D01*
X211424966Y-139226609D01*
X211436507Y-139216286D01*
X211447994Y-139205903D01*
X211459428Y-139195461D01*
X211470808Y-139184960D01*
X211482133Y-139174400D01*
X211493404Y-139163782D01*
X211504620Y-139153106D01*
X211515781Y-139142372D01*
X211526886Y-139131580D01*
X211537936Y-139120731D01*
X211548929Y-139109825D01*
X211551896Y-139106862D01*
D10*
X109493236Y-124657802D02*
G75*
G02*
X108493298Y-123657802I64J1000002D01*
G01*
X134701212Y-121598655D02*
X134701212Y-123657802D01*
D12*
X209725306Y-74745416D02*
X158103306Y-74772977D01*
X79927200Y-57705457D02*
X79926511Y-97575375D01*
X79926511Y-97575375D02*
X79925822Y-137445120D01*
D11*
X80661349Y-55930716D02*
X80656336Y-55935726D01*
X80651336Y-55940751D01*
X80646352Y-55945789D01*
X80641382Y-55950841D01*
X80636427Y-55955906D01*
X80631485Y-55960985D01*
X80626559Y-55966078D01*
X80621648Y-55971185D01*
X80616751Y-55976305D01*
X80611869Y-55981438D01*
X80607002Y-55986585D01*
X80602149Y-55991745D01*
X80597312Y-55996919D01*
X80592489Y-56002106D01*
X80587682Y-56007306D01*
X80582889Y-56012520D01*
X80578112Y-56017747D01*
X80573349Y-56022987D01*
X80568602Y-56028240D01*
X80563869Y-56033506D01*
X80559153Y-56038785D01*
X80554451Y-56044077D01*
X80549764Y-56049382D01*
X80545093Y-56054700D01*
X80540437Y-56060030D01*
X80535797Y-56065374D01*
X80531172Y-56070730D01*
X80526562Y-56076100D01*
X80521968Y-56081481D01*
X80517389Y-56086875D01*
X80512826Y-56092282D01*
X80508279Y-56097702D01*
X80503747Y-56103133D01*
X80499231Y-56108578D01*
X80494731Y-56114034D01*
X80490246Y-56119504D01*
X80485777Y-56124985D01*
X80481324Y-56130479D01*
X80476887Y-56135984D01*
X80472465Y-56141503D01*
X80468060Y-56147033D01*
X80463670Y-56152575D01*
X80459297Y-56158129D01*
X80454939Y-56163696D01*
X80450598Y-56169274D01*
X80446272Y-56174864D01*
X80441963Y-56180466D01*
X80437670Y-56186080D01*
X80433393Y-56191705D01*
X80429132Y-56197343D01*
X80424888Y-56202992D01*
X80420660Y-56208653D01*
X80416448Y-56214325D01*
X80412252Y-56220009D01*
X80408074Y-56225704D01*
X80403910Y-56231411D01*
X80399765Y-56237128D01*
X80395634Y-56242859D01*
X80391521Y-56248599D01*
X80387424Y-56254351D01*
X80383344Y-56260114D01*
X80379280Y-56265889D01*
X80375234Y-56271675D01*
X80371203Y-56277472D01*
X80367190Y-56283279D01*
X80363193Y-56289098D01*
X80359213Y-56294928D01*
X80355249Y-56300769D01*
X80351303Y-56306620D01*
X80347372Y-56312483D01*
X80343460Y-56318355D01*
X80339564Y-56324240D01*
X80335685Y-56330134D01*
X80331822Y-56336040D01*
X80327977Y-56341955D01*
X80324149Y-56347882D01*
X80320338Y-56353818D01*
X80316544Y-56359766D01*
X80312767Y-56365723D01*
X80309007Y-56371692D01*
X80305264Y-56377670D01*
X80301538Y-56383659D01*
X80297830Y-56389658D01*
X80294139Y-56395668D01*
X80290465Y-56401686D01*
X80286808Y-56407716D01*
X80283169Y-56413755D01*
X80279547Y-56419806D01*
X80275942Y-56425864D01*
X80272355Y-56431935D01*
X80268785Y-56438013D01*
X80265232Y-56444103D01*
X80261697Y-56450201D01*
X80258179Y-56456311D01*
X80254680Y-56462428D01*
X80251197Y-56468557D01*
X80247732Y-56474694D01*
X80244284Y-56480842D01*
X80240855Y-56486998D01*
X80237442Y-56493165D01*
X80234048Y-56499341D01*
X80230671Y-56505526D01*
X80227312Y-56511720D01*
X80223970Y-56517925D01*
X80220647Y-56524137D01*
X80217340Y-56530360D01*
X80214052Y-56536591D01*
X80210781Y-56542832D01*
X80207529Y-56549081D01*
X80204294Y-56555341D01*
X80201077Y-56561608D01*
X80197878Y-56567886D01*
X80194697Y-56574171D01*
X80191534Y-56580466D01*
X80188389Y-56586769D01*
X80185261Y-56593082D01*
X80182152Y-56599402D01*
X80179061Y-56605732D01*
X80175988Y-56612070D01*
X80172932Y-56618418D01*
X80169896Y-56624773D01*
X80166876Y-56631138D01*
X80163876Y-56637509D01*
X80160893Y-56643891D01*
X80157928Y-56650280D01*
X80154981Y-56656679D01*
X80152054Y-56663084D01*
X80149143Y-56669499D01*
X80146252Y-56675921D01*
X80143378Y-56682353D01*
X80140523Y-56688791D01*
X80137686Y-56695240D01*
X80134867Y-56701694D01*
X80132067Y-56708158D01*
X80129285Y-56714629D01*
X80126521Y-56721109D01*
X80123776Y-56727596D01*
X80121049Y-56734092D01*
X80118341Y-56740594D01*
X80115650Y-56747106D01*
X80112979Y-56753623D01*
X80110325Y-56760151D01*
X80107691Y-56766684D01*
X80105075Y-56773226D01*
X80102477Y-56779774D01*
X80099898Y-56786332D01*
X80097338Y-56792896D01*
X80094795Y-56799468D01*
X80092272Y-56806047D01*
X80089767Y-56812634D01*
X80087281Y-56819227D01*
X80084813Y-56825830D01*
X80082365Y-56832437D01*
X80079934Y-56839054D01*
X80077523Y-56845676D01*
X80075129Y-56852308D01*
X80072755Y-56858944D01*
X80070399Y-56865590D01*
X80068063Y-56872240D01*
X80065745Y-56878900D01*
X80063446Y-56885564D01*
X80061165Y-56892238D01*
X80058903Y-56898916D01*
X80056660Y-56905603D01*
X80054436Y-56912296D01*
X80052231Y-56918996D01*
X80050045Y-56925702D01*
X80047877Y-56932416D01*
X80045728Y-56939136D01*
X80043598Y-56945863D01*
X80041487Y-56952596D01*
X80039395Y-56959336D01*
X80037322Y-56966082D01*
X80035268Y-56972836D01*
X80033233Y-56979594D01*
X80031216Y-56986361D01*
X80029220Y-56993132D01*
X80027241Y-56999912D01*
X80025282Y-57006696D01*
X80023341Y-57013488D01*
X80021421Y-57020284D01*
X80019518Y-57027089D01*
X80017635Y-57033898D01*
X80015771Y-57040715D01*
X80013926Y-57047536D01*
X80012100Y-57054365D01*
X80010294Y-57061198D01*
X80008506Y-57068039D01*
X80006737Y-57074884D01*
X80004988Y-57081737D01*
X80003258Y-57088594D01*
X80001546Y-57095459D01*
X79999855Y-57102328D01*
X79998182Y-57109204D01*
X79996528Y-57116085D01*
X79994894Y-57122973D01*
X79993279Y-57129864D01*
X79991683Y-57136764D01*
X79990106Y-57143667D01*
X79988549Y-57150577D01*
X79987011Y-57157491D01*
X79985492Y-57164413D01*
X79983992Y-57171338D01*
X79982512Y-57178271D01*
X79981051Y-57185207D01*
X79979609Y-57192151D01*
X79978187Y-57199098D01*
X79976784Y-57206052D01*
X79975400Y-57213009D01*
X79974036Y-57219974D01*
X79972691Y-57226942D01*
X79971365Y-57233918D01*
X79970059Y-57240896D01*
X79968772Y-57247882D01*
X79967505Y-57254870D01*
X79966257Y-57261866D01*
X79965029Y-57268865D01*
X79963819Y-57275871D01*
X79962630Y-57282880D01*
X79961460Y-57289896D01*
X79960309Y-57296915D01*
X79959178Y-57303941D01*
X79958066Y-57310969D01*
X79956974Y-57318005D01*
X79955901Y-57325043D01*
X79954848Y-57332089D01*
X79953814Y-57339136D01*
X79952800Y-57346191D01*
X79951805Y-57353248D01*
X79950830Y-57360312D01*
X79949875Y-57367379D01*
X79948938Y-57374452D01*
X79948022Y-57381528D01*
X79947125Y-57388611D01*
X79946248Y-57395696D01*
X79945391Y-57402787D01*
X79944553Y-57409881D01*
X79943734Y-57416982D01*
X79942936Y-57424084D01*
X79942157Y-57431194D01*
X79941397Y-57438305D01*
X79940657Y-57445423D01*
X79939938Y-57452543D01*
X79939237Y-57459670D01*
X79938557Y-57466799D01*
X79937895Y-57473934D01*
X79937254Y-57481071D01*
X79936633Y-57488215D01*
X79936031Y-57495360D01*
X79935449Y-57502512D01*
X79934887Y-57509666D01*
X79934344Y-57516826D01*
X79933821Y-57523987D01*
X79933318Y-57531156D01*
X79932835Y-57538325D01*
X79932372Y-57545501D01*
X79931928Y-57552679D01*
X79931504Y-57559863D01*
X79931100Y-57567049D01*
X79930716Y-57574240D01*
X79930352Y-57581434D01*
X79930007Y-57588633D01*
X79929683Y-57595834D01*
X79929378Y-57603041D01*
X79929093Y-57610249D01*
X79928828Y-57617464D01*
X79928583Y-57624679D01*
X79928358Y-57631901D01*
X79928152Y-57639124D01*
X79927967Y-57646353D01*
X79927802Y-57653584D01*
X79927656Y-57660820D01*
X79927530Y-57668058D01*
X79927425Y-57675301D01*
X79927339Y-57682545D01*
X79927274Y-57689796D01*
X79927228Y-57697047D01*
X79927202Y-57704304D01*
X79927200Y-57705457D01*
D10*
X109493236Y-120598655D02*
X133701212Y-120598655D01*
D11*
X80657388Y-139214349D02*
X80662413Y-139219364D01*
X80667452Y-139224364D01*
X80672505Y-139229350D01*
X80677572Y-139234322D01*
X80682653Y-139239280D01*
X80687749Y-139244223D01*
X80692857Y-139249152D01*
X80697980Y-139254067D01*
X80703117Y-139258967D01*
X80708267Y-139263852D01*
X80713431Y-139268723D01*
X80718609Y-139273579D01*
X80723800Y-139278421D01*
X80729004Y-139283248D01*
X80734223Y-139288060D01*
X80739454Y-139292857D01*
X80744699Y-139297639D01*
X80749958Y-139302407D01*
X80755230Y-139307159D01*
X80760515Y-139311897D01*
X80765813Y-139316620D01*
X80771125Y-139321327D01*
X80776449Y-139326020D01*
X80781787Y-139330697D01*
X80787137Y-139335359D01*
X80792501Y-139340006D01*
X80797877Y-139344638D01*
X80803267Y-139349254D01*
X80808669Y-139353855D01*
X80814085Y-139358441D01*
X80819512Y-139363011D01*
X80824953Y-139367566D01*
X80830406Y-139372105D01*
X80835872Y-139376629D01*
X80841350Y-139381137D01*
X80846841Y-139385630D01*
X80852344Y-139390106D01*
X80857860Y-139394568D01*
X80863388Y-139399013D01*
X80868928Y-139403443D01*
X80874480Y-139407857D01*
X80880045Y-139412255D01*
X80885622Y-139416637D01*
X80891211Y-139421003D01*
X80896812Y-139425353D01*
X80902425Y-139429687D01*
X80908050Y-139434005D01*
X80913687Y-139438307D01*
X80919336Y-139442593D01*
X80924997Y-139446863D01*
X80930669Y-139451117D01*
X80936353Y-139455354D01*
X80942048Y-139459575D01*
X80947756Y-139463780D01*
X80953474Y-139467968D01*
X80959205Y-139472141D01*
X80964947Y-139476296D01*
X80970700Y-139480436D01*
X80976464Y-139484558D01*
X80982241Y-139488665D01*
X80988027Y-139492754D01*
X80993826Y-139496827D01*
X80999635Y-139500884D01*
X81005456Y-139504924D01*
X81011287Y-139508947D01*
X81017130Y-139512953D01*
X81022983Y-139516943D01*
X81028848Y-139520916D01*
X81034723Y-139524872D01*
X81040610Y-139528812D01*
X81046506Y-139532734D01*
X81052414Y-139536640D01*
X81058332Y-139540528D01*
X81064262Y-139544400D01*
X81070200Y-139548254D01*
X81076151Y-139552092D01*
X81082111Y-139555912D01*
X81088082Y-139559716D01*
X81094062Y-139563502D01*
X81100054Y-139567271D01*
X81106055Y-139571023D01*
X81112068Y-139574758D01*
X81118089Y-139578475D01*
X81124122Y-139582175D01*
X81130163Y-139585858D01*
X81136216Y-139589524D01*
X81142278Y-139593171D01*
X81148350Y-139596803D01*
X81154431Y-139600416D01*
X81160524Y-139604012D01*
X81166624Y-139607590D01*
X81172736Y-139611151D01*
X81178856Y-139614694D01*
X81184987Y-139618220D01*
X81191126Y-139621728D01*
X81197276Y-139625219D01*
X81203434Y-139628691D01*
X81209603Y-139632147D01*
X81215780Y-139635584D01*
X81221967Y-139639004D01*
X81228163Y-139642406D01*
X81234369Y-139645791D01*
X81240582Y-139649157D01*
X81246807Y-139652506D01*
X81253038Y-139655836D01*
X81259281Y-139659150D01*
X81265530Y-139662444D01*
X81271791Y-139665722D01*
X81278058Y-139668981D01*
X81284336Y-139672222D01*
X81290621Y-139675445D01*
X81296916Y-139678651D01*
X81303219Y-139681837D01*
X81309531Y-139685007D01*
X81315851Y-139688157D01*
X81322180Y-139691291D01*
X81328517Y-139694405D01*
X81334863Y-139697502D01*
X81341216Y-139700580D01*
X81347580Y-139703640D01*
X81353949Y-139706682D01*
X81360329Y-139709706D01*
X81366715Y-139712711D01*
X81373111Y-139715698D01*
X81379514Y-139718667D01*
X81385926Y-139721618D01*
X81392344Y-139724549D01*
X81398772Y-139727463D01*
X81405206Y-139730358D01*
X81411650Y-139733236D01*
X81418100Y-139736094D01*
X81424559Y-139738934D01*
X81431024Y-139741755D01*
X81437499Y-139744559D01*
X81443979Y-139747343D01*
X81450469Y-139750109D01*
X81456965Y-139752856D01*
X81463469Y-139755585D01*
X81469980Y-139758295D01*
X81476499Y-139760987D01*
X81483024Y-139763660D01*
X81489558Y-139766315D01*
X81496098Y-139768950D01*
X81502646Y-139771567D01*
X81509200Y-139774165D01*
X81515763Y-139776745D01*
X81522331Y-139779306D01*
X81528908Y-139781848D01*
X81535489Y-139784371D01*
X81542080Y-139786876D01*
X81548676Y-139789361D01*
X81555280Y-139791829D01*
X81561889Y-139794277D01*
X81568507Y-139796706D01*
X81575130Y-139799116D01*
X81581761Y-139801508D01*
X81588397Y-139803880D01*
X81595041Y-139806234D01*
X81601690Y-139808569D01*
X81608347Y-139810885D01*
X81615009Y-139813182D01*
X81621679Y-139815460D01*
X81628353Y-139817718D01*
X81635036Y-139819959D01*
X81641723Y-139822179D01*
X81648418Y-139824381D01*
X81655117Y-139826564D01*
X81661825Y-139828728D01*
X81668536Y-139830872D01*
X81675256Y-139832998D01*
X81681979Y-139835105D01*
X81688711Y-139837192D01*
X81695446Y-139839260D01*
X81702189Y-139841310D01*
X81708936Y-139843339D01*
X81715691Y-139845351D01*
X81722449Y-139847342D01*
X81729216Y-139849315D01*
X81735985Y-139851268D01*
X81742763Y-139853202D01*
X81749544Y-139855117D01*
X81756333Y-139857013D01*
X81763124Y-139858889D01*
X81769924Y-139860746D01*
X81776727Y-139862584D01*
X81783537Y-139864402D01*
X81790350Y-139866201D01*
X81797171Y-139867982D01*
X81803995Y-139869742D01*
X81810827Y-139871483D01*
X81817661Y-139873205D01*
X81824503Y-139874908D01*
X81831347Y-139876591D01*
X81838199Y-139878255D01*
X81845053Y-139879899D01*
X81851915Y-139881525D01*
X81858780Y-139883130D01*
X81865651Y-139884717D01*
X81872525Y-139886283D01*
X81879407Y-139887831D01*
X81886290Y-139889359D01*
X81893181Y-139890868D01*
X81900074Y-139892357D01*
X81906975Y-139893826D01*
X81913877Y-139895276D01*
X81920786Y-139896707D01*
X81927698Y-139898118D01*
X81934616Y-139899510D01*
X81941537Y-139900882D01*
X81948464Y-139902235D01*
X81955394Y-139903568D01*
X81962330Y-139904881D01*
X81969268Y-139906175D01*
X81976213Y-139907450D01*
X81983159Y-139908704D01*
X81990112Y-139909940D01*
X81997067Y-139911155D01*
X82004029Y-139912352D01*
X82010992Y-139913528D01*
X82017962Y-139914685D01*
X82024933Y-139915822D01*
X82031911Y-139916940D01*
X82038890Y-139918038D01*
X82045876Y-139919117D01*
X82052863Y-139920175D01*
X82059857Y-139921214D01*
X82066852Y-139922234D01*
X82073853Y-139923233D01*
X82080855Y-139924213D01*
X82087864Y-139925174D01*
X82094874Y-139926114D01*
X82101890Y-139927036D01*
X82108907Y-139927937D01*
X82115931Y-139928818D01*
X82122955Y-139929680D01*
X82129985Y-139930522D01*
X82137017Y-139931344D01*
X82144054Y-139932147D01*
X82151093Y-139932930D01*
X82158137Y-139933693D01*
X82165182Y-139934436D01*
X82172233Y-139935160D01*
X82179285Y-139935864D01*
X82186342Y-139936548D01*
X82193401Y-139937212D01*
X82200465Y-139937856D01*
X82207529Y-139938481D01*
X82214600Y-139939086D01*
X82221671Y-139939670D01*
X82228747Y-139940236D01*
X82235825Y-139940781D01*
X82242907Y-139941306D01*
X82249990Y-139941812D01*
X82257079Y-139942298D01*
X82264168Y-139942763D01*
X82271263Y-139943210D01*
X82278358Y-139943636D01*
X82285458Y-139944042D01*
X82292559Y-139944428D01*
X82299665Y-139944795D01*
X82306771Y-139945141D01*
X82313882Y-139945468D01*
X82320994Y-139945775D01*
X82328111Y-139946062D01*
X82335228Y-139946328D01*
X82342350Y-139946575D01*
X82349472Y-139946802D01*
X82356600Y-139947010D01*
X82363727Y-139947197D01*
X82370859Y-139947364D01*
X82377992Y-139947511D01*
X82385129Y-139947638D01*
X82392266Y-139947746D01*
X82399409Y-139947833D01*
X82406551Y-139947900D01*
X82413697Y-139947948D01*
X82425755Y-139947982D01*
D12*
X157593777Y-74265170D02*
X157586886Y-65988845D01*
D11*
X82427650Y-55202768D02*
X82413370Y-55202783D01*
X82399099Y-55202878D01*
X82384838Y-55203053D01*
X82370586Y-55203307D01*
X82356344Y-55203642D01*
X82342113Y-55204056D01*
X82327892Y-55204549D01*
X82313682Y-55205123D01*
X82299482Y-55205775D01*
X82285294Y-55206508D01*
X82271116Y-55207319D01*
X82256951Y-55208211D01*
X82242797Y-55209181D01*
X82228655Y-55210231D01*
X82214526Y-55211360D01*
X82200409Y-55212568D01*
X82186304Y-55213856D01*
X82172213Y-55215222D01*
X82158135Y-55216668D01*
X82144070Y-55218192D01*
X82130019Y-55219795D01*
X82115983Y-55221477D01*
X82101960Y-55223238D01*
X82087952Y-55225078D01*
X82073959Y-55226997D01*
X82059981Y-55228994D01*
X82046018Y-55231069D01*
X82032071Y-55233223D01*
X82018140Y-55235456D01*
X82004224Y-55237766D01*
X81990326Y-55240156D01*
X81976444Y-55242623D01*
X81962579Y-55245168D01*
X81948731Y-55247792D01*
X81934901Y-55250494D01*
X81921089Y-55253273D01*
X81907295Y-55256131D01*
X81893519Y-55259066D01*
X81879762Y-55262079D01*
X81866025Y-55265170D01*
X81852306Y-55268338D01*
X81838607Y-55271584D01*
X81824929Y-55274907D01*
X81811270Y-55278308D01*
X81797632Y-55281786D01*
X81784015Y-55285341D01*
X81770420Y-55288973D01*
X81756846Y-55292682D01*
X81743294Y-55296468D01*
X81729764Y-55300330D01*
X81716256Y-55304270D01*
X81702772Y-55308286D01*
X81689310Y-55312378D01*
X81675873Y-55316547D01*
X81662459Y-55320793D01*
X81649069Y-55325114D01*
X81635704Y-55329511D01*
X81622364Y-55333985D01*
X81609049Y-55338534D01*
X81595759Y-55343159D01*
X81582496Y-55347860D01*
X81569259Y-55352636D01*
X81556048Y-55357488D01*
X81542865Y-55362415D01*
X81529709Y-55367417D01*
X81516581Y-55372494D01*
X81503480Y-55377645D01*
X81490409Y-55382872D01*
X81477366Y-55388173D01*
X81464352Y-55393549D01*
X81451368Y-55398998D01*
X81438414Y-55404522D01*
X81425490Y-55410120D01*
X81412597Y-55415792D01*
X81399735Y-55421538D01*
X81386904Y-55427357D01*
X81374105Y-55433249D01*
X81361338Y-55439215D01*
X81348604Y-55445254D01*
X81335903Y-55451365D01*
X81323235Y-55457549D01*
X81310601Y-55463806D01*
X81298002Y-55470135D01*
X81285436Y-55476536D01*
X81272906Y-55483010D01*
X81260411Y-55489554D01*
X81247951Y-55496171D01*
X81235528Y-55502859D01*
X81223141Y-55509618D01*
X81210791Y-55516448D01*
X81198478Y-55523349D01*
X81186203Y-55530320D01*
X81173966Y-55537362D01*
X81161768Y-55544474D01*
X81149608Y-55551655D01*
X81137488Y-55558907D01*
X81125407Y-55566228D01*
X81113366Y-55573618D01*
X81101366Y-55581077D01*
X81089407Y-55588605D01*
X81077489Y-55596201D01*
X81065613Y-55603866D01*
X81053778Y-55611599D01*
X81041986Y-55619399D01*
X81030238Y-55627267D01*
X81018532Y-55635203D01*
X81006870Y-55643205D01*
X80995252Y-55651274D01*
X80983679Y-55659410D01*
X80972150Y-55667611D01*
X80960667Y-55675879D01*
X80949229Y-55684213D01*
X80937838Y-55692611D01*
X80926493Y-55701075D01*
X80915195Y-55709604D01*
X80903944Y-55718197D01*
X80892740Y-55726855D01*
X80881585Y-55735576D01*
X80870479Y-55744361D01*
X80859421Y-55753209D01*
X80848412Y-55762121D01*
X80837453Y-55771095D01*
X80826545Y-55780132D01*
X80815686Y-55789230D01*
X80804878Y-55798391D01*
X80794122Y-55807613D01*
X80783417Y-55816896D01*
X80772764Y-55826240D01*
X80762164Y-55835644D01*
X80751616Y-55845108D01*
X80741121Y-55854633D01*
X80730680Y-55864217D01*
X80720292Y-55873860D01*
X80709959Y-55883561D01*
X80699681Y-55893322D01*
X80689457Y-55903140D01*
X80679289Y-55913016D01*
X80669176Y-55922950D01*
X80661349Y-55930716D01*
D10*
X84455181Y-136428473D02*
G75*
G02*
X81255181Y-136428473I-1600000J0D01*
G01*
X81255181Y-136428473D02*
G75*
G02*
X84455181Y-136428473I1600000J0D01*
G01*
D13*
%TO.C,SW2*%
X167518135Y-127962395D02*
X167939035Y-127962395D01*
X167518135Y-129664195D02*
X167939035Y-129664195D01*
X178097235Y-127961495D02*
X178518135Y-127961495D01*
X178097235Y-129663295D02*
X178518135Y-129663295D01*
X167518135Y-129664195D02*
G75*
G02*
X167518135Y-127962395I0J850900D01*
G01*
X167939035Y-127962395D02*
G75*
G02*
X167939035Y-129664195I0J-850900D01*
G01*
X178097235Y-129663295D02*
G75*
G02*
X178097235Y-127961495I0J850900D01*
G01*
X178518135Y-127961495D02*
G75*
G02*
X178518135Y-129663295I0J-850900D01*
G01*
D10*
%TO.C,E2*%
X201895058Y-106477585D02*
X201895058Y-105277585D01*
X201895058Y-117907585D02*
X201895058Y-116707585D01*
X202195058Y-104977585D02*
X204795058Y-104977585D01*
X202195058Y-116407585D02*
X204795058Y-116407585D01*
X204795058Y-106777585D02*
X202195058Y-106777585D01*
X204795058Y-118207585D02*
X202195058Y-118207585D01*
X205095058Y-105277585D02*
X205095058Y-106477585D01*
X205095058Y-116707585D02*
X205095058Y-117907585D01*
X201895058Y-105277585D02*
G75*
G02*
X202195058Y-104977585I300000J0D01*
G01*
X201895058Y-116707585D02*
G75*
G02*
X202195058Y-116407585I300000J0D01*
G01*
X202195058Y-106777585D02*
G75*
G02*
X201895058Y-106477585I0J300000D01*
G01*
X202195058Y-118207585D02*
G75*
G02*
X201895058Y-117907585I0J300000D01*
G01*
X204795058Y-104977585D02*
G75*
G02*
X205095058Y-105277585I0J-300000D01*
G01*
X204795058Y-116407585D02*
G75*
G02*
X205095058Y-116707585I0J-300000D01*
G01*
X205095058Y-106477585D02*
G75*
G02*
X204795058Y-106777585I-300000J0D01*
G01*
X205095058Y-117907585D02*
G75*
G02*
X204795058Y-118207585I-300000J0D01*
G01*
D13*
%TO.C,SW3*%
X191107718Y-127945033D02*
X191528618Y-127945033D01*
X191107718Y-129646833D02*
X191528618Y-129646833D01*
X201686818Y-127944133D02*
X202107718Y-127944133D01*
X201686818Y-129645933D02*
X202107718Y-129645933D01*
X191107718Y-129646833D02*
G75*
G02*
X191107718Y-127945033I0J850900D01*
G01*
X191528618Y-127945033D02*
G75*
G02*
X191528618Y-129646833I0J-850900D01*
G01*
X201686818Y-129645933D02*
G75*
G02*
X201686818Y-127944133I0J850900D01*
G01*
X202107718Y-127944133D02*
G75*
G02*
X202107718Y-129645933I0J-850900D01*
G01*
%TO.C,SW1*%
X86207658Y-80965763D02*
X86628558Y-80965763D01*
X86207658Y-82667563D02*
X86628558Y-82667563D01*
X96786758Y-80964863D02*
X97207658Y-80964863D01*
X96786758Y-82666663D02*
X97207658Y-82666663D01*
X86207658Y-82667563D02*
G75*
G02*
X86207658Y-80965763I0J850900D01*
G01*
X86628558Y-80965763D02*
G75*
G02*
X86628558Y-82667563I0J-850900D01*
G01*
X96786758Y-82666663D02*
G75*
G02*
X96786758Y-80964863I0J850900D01*
G01*
X97207658Y-80964863D02*
G75*
G02*
X97207658Y-82666663I0J-850900D01*
G01*
D10*
%TO.C,E1*%
X103031361Y-83134032D02*
X103031361Y-80534032D01*
X103331361Y-80234032D02*
X104531361Y-80234032D01*
X104531361Y-83434032D02*
X103331361Y-83434032D01*
X104831361Y-80534032D02*
X104831361Y-83134032D01*
X114461361Y-83134032D02*
X114461361Y-80534032D01*
X114761361Y-80234032D02*
X115961361Y-80234032D01*
X115961361Y-83434032D02*
X114761361Y-83434032D01*
X116261361Y-80534032D02*
X116261361Y-83134032D01*
X103031361Y-80534032D02*
G75*
G02*
X103331361Y-80234032I300000J0D01*
G01*
X103331361Y-83434032D02*
G75*
G02*
X103031361Y-83134032I0J300000D01*
G01*
X104531361Y-80234032D02*
G75*
G02*
X104831361Y-80534032I0J-300000D01*
G01*
X104831361Y-83134032D02*
G75*
G02*
X104531361Y-83434032I-300000J0D01*
G01*
X114461361Y-80534032D02*
G75*
G02*
X114761361Y-80234032I300000J0D01*
G01*
X114761361Y-83434032D02*
G75*
G02*
X114461361Y-83134032I0J300000D01*
G01*
X115961361Y-80234032D02*
G75*
G02*
X116261361Y-80534032I0J-300000D01*
G01*
X116261361Y-83134032D02*
G75*
G02*
X115961361Y-83434032I-300000J0D01*
G01*
%TO.C,E3*%
X177776520Y-106481217D02*
X177776520Y-105281217D01*
X177776520Y-117911217D02*
X177776520Y-116711217D01*
X178076520Y-104981217D02*
X180676520Y-104981217D01*
X178076520Y-116411217D02*
X180676520Y-116411217D01*
X180676520Y-106781217D02*
X178076520Y-106781217D01*
X180676520Y-118211217D02*
X178076520Y-118211217D01*
X180976520Y-105281217D02*
X180976520Y-106481217D01*
X180976520Y-116711217D02*
X180976520Y-117911217D01*
X177776520Y-105281217D02*
G75*
G02*
X178076520Y-104981217I300000J0D01*
G01*
X177776520Y-116711217D02*
G75*
G02*
X178076520Y-116411217I300000J0D01*
G01*
X178076520Y-106781217D02*
G75*
G02*
X177776520Y-106481217I0J300000D01*
G01*
X178076520Y-118211217D02*
G75*
G02*
X177776520Y-117911217I0J300000D01*
G01*
X180676520Y-104981217D02*
G75*
G02*
X180976520Y-105281217I0J-300000D01*
G01*
X180676520Y-116411217D02*
G75*
G02*
X180976520Y-116711217I0J-300000D01*
G01*
X180976520Y-106481217D02*
G75*
G02*
X180676520Y-106781217I-300000J0D01*
G01*
X180976520Y-117911217D02*
G75*
G02*
X180676520Y-118211217I-300000J0D01*
G01*
%TD*%
M02*
