M48
; DRILL file {KiCad 9.0.6} date 2025-11-29T22:38:19+1000
; FORMAT={-:-/ absolute / inch / decimal}
; #@! TF.CreationDate,2025-11-29T22:38:19+10:00
; #@! TF.GenerationSoftware,Kicad,Pcbnew,9.0.6
; #@! TF.FileFunction,Plated,1,2,PTH
FMAT,2
INCH
; #@! TA.AperFunction,Plated,PTH,ViaDrill
T1C0.0100
; #@! TA.AperFunction,Plated,PTH,ViaDrill
T2C0.0118
; #@! TA.AperFunction,Plated,PTH,ViaDrill
T3C0.0150
; #@! TA.AperFunction,Plated,PTH,ViaDrill
T4C0.0197
; #@! TA.AperFunction,Plated,PTH,ComponentDrill
T5C0.0394
; #@! TA.AperFunction,Plated,PTH,ComponentDrill
T6C0.0500
; #@! TA.AperFunction,Plated,PTH,ComponentDrill
T7C0.0591
%
G90
G05
T1
X6.5221Y-4.129
X6.9138Y-4.1299
X7.333Y-4.1301
X7.7182Y-4.1277
T2
X3.664Y-3.6196
X3.7574Y-3.7857
X3.8866Y-3.7691
X3.9078Y-3.6189
X4.1552Y-3.767
X4.3837Y-3.659
X4.4099Y-5.2924
X4.4542Y-3.627
X4.6347Y-3.6268
X4.8015Y-5.2866
X5.0792Y-4.3003
X5.1327Y-4.451
X5.136Y-5.2873
X5.5484Y-3.18
X5.8878Y-3.9599
X5.9272Y-4.6972
X5.949Y-4.6443
X5.9753Y-4.6712
X6.0366Y-4.728
X6.061Y-4.7569
X6.0691Y-4.6557
X6.1071Y-4.6805
X6.1079Y-4.6131
X6.1097Y-4.5506
X6.1294Y-3.2477
X6.4575Y-4.7227
X6.4737Y-5.2572
X6.4823Y-5.0941
X6.5012Y-5.283
X6.5043Y-5.0654
X6.6796Y-4.1264
X6.7545Y-4.1291
X7.0769Y-3.9087
X7.0841Y-3.857
X7.1117Y-4.8111
X7.1596Y-4.2677
X7.1643Y-4.3975
X7.1847Y-5.1868
X7.2821Y-4.7148
X7.2874Y-4.7542
X7.3311Y-4.647
X7.3583Y-5.0825
X7.3853Y-4.3368
X7.4286Y-4.8192
X7.4381Y-5.3998
X7.4693Y-4.1511
X7.5237Y-4.1496
X7.5254Y-3.9724
X7.5688Y-4.1511
X7.5941Y-5.3844
X8.2753Y-5.0712
T3
X4.8344Y-3.9731
X4.8348Y-4.1319
X4.9312Y-3.2849
X4.9312Y-3.7349
X5.0812Y-4.0099
X5.1562Y-3.8849
X5.1812Y-3.7349
X5.2357Y-4.2692
X5.3801Y-4.335
X5.3937Y-3.9349
X5.4812Y-4.1349
X5.4937Y-3.6599
X5.5062Y-4.0599
X5.7687Y-3.8099
T4
X5.2483Y-3.3129
X5.4025Y-3.2546
X5.43Y-3.4609
X5.6357Y-3.2367
T5
X4.2178Y-3.5171
X4.3162Y-3.5171
X4.4146Y-3.5171
X6.2472Y-3.279
X6.2472Y-3.379
X6.2472Y-3.479
X6.2472Y-3.579
X6.2472Y-3.679
X6.2472Y-3.779
X6.2472Y-3.879
X6.2472Y-3.979
X6.2472Y-4.079
X6.2472Y-4.179
X6.2472Y-4.279
X6.2472Y-4.379
X6.2472Y-4.479
X6.2472Y-4.579
X6.2472Y-4.679
X6.2472Y-4.779
X6.2472Y-4.879
X6.2472Y-4.979
X6.2472Y-5.079
X6.2472Y-5.179
X6.3472Y-3.279
X6.3472Y-3.379
X6.3472Y-3.479
X6.3472Y-3.579
X6.3472Y-3.679
X6.3472Y-3.779
X6.3472Y-3.879
X6.3472Y-3.979
X6.3472Y-4.079
X6.3472Y-4.179
X6.3472Y-4.279
X6.3472Y-4.379
X6.3472Y-4.479
X6.3472Y-4.579
X6.3472Y-4.679
X6.3472Y-4.779
X6.3472Y-4.879
X6.3472Y-4.979
X6.3472Y-5.079
X6.3472Y-5.179
X6.7668Y-4.2945
X6.7668Y-4.393
X6.7668Y-4.4914
X7.7163Y-4.2944
X7.7163Y-4.3928
X7.7163Y-4.4912
T6
X3.4137Y-3.3707
X3.6105Y-3.4534
X6.6149Y-5.221
X6.8117Y-5.3037
X7.5436Y-5.2203
X7.7405Y-5.303
T7
X3.4503Y-2.3505
X3.4503Y-2.6005
X3.4503Y-2.8505
X3.5105Y-3.4211
X3.7605Y-3.3211
X3.9003Y-2.3505
X3.9003Y-2.6005
X3.9003Y-2.8505
X4.0912Y-3.2218
X4.1117Y-2.3505
X4.1117Y-2.6005
X4.1117Y-2.8505
X4.5412Y-3.2218
X4.5617Y-2.3505
X4.5617Y-2.6005
X4.5617Y-2.8505
X4.7749Y-2.3505
X4.7749Y-2.6005
X4.7749Y-2.8505
X5.2249Y-2.3505
X5.2249Y-2.6005
X5.2249Y-2.8505
X5.4355Y-2.3505
X5.4355Y-2.6005
X5.4355Y-2.8505
X5.8855Y-2.3505
X5.8855Y-2.6005
X5.8855Y-2.8505
X6.7117Y-5.2714
X6.9617Y-5.1714
X7.0621Y-4.168
X7.0621Y-4.618
X7.6405Y-5.2707
X7.8905Y-5.1707
X8.0116Y-4.1678
X8.0116Y-4.6178
M30
